<?xml version="1.0" encoding="UTF-8"?>
<!DOCTYPE xmeml>
<xmeml version="5">
    <sequence>
        <name>Timeline 1 (Resolve)</name>
        <duration>1087</duration>
        <rate>
            <timebase>60</timebase>
            <ntsc>FALSE</ntsc>
        </rate>
        <in>-1</in>
        <out>-1</out>
        <timecode>
            <string>01:00:00:00</string>
            <frame>216000</frame>
            <displayformat>NDF</displayformat>
            <rate>
                <timebase>60</timebase>
                <ntsc>FALSE</ntsc>
            </rate>
        </timecode>
        <media>
            <video>
                <track>
                    <enabled>TRUE</enabled>
                    <locked>FALSE</locked>
                </track>
                <track>
                    <enabled>TRUE</enabled>
                    <locked>FALSE</locked>
                </track>
                <format>
                    <samplecharacteristics>
                        <width>3840</width>
                        <height>2160</height>
                        <pixelaspectratio>square</pixelaspectratio>
                        <rate>
                            <timebase>60</timebase>
                            <ntsc>FALSE</ntsc>
                        </rate>
                        <codec>
                            <appspecificdata>
                                <appname>Final Cut Pro</appname>
                                <appmanufacturer>Apple Inc.</appmanufacturer>
                                <data>
                                    <qtcodec/>
                                </data>
                            </appspecificdata>
                        </codec>
                    </samplecharacteristics>
                </format>
            </video>
            <audio>
                <track>
                    <clipitem id="m.aff.wav 0">
                        <name>m.aff.wav</name>
                        <duration>1096</duration>
                        <rate>
                            <timebase>60</timebase>
                            <ntsc>FALSE</ntsc>
                        </rate>
                        <start>0</start>
                        <end>1080</end>
                        <enabled>TRUE</enabled>
                        <in>16</in>
                        <out>1096</out>
                        <file id="m.aff.wav 1">
                            <duration>1096</duration>
                            <rate>
                                <timebase>60</timebase>
                                <ntsc>FALSE</ntsc>
                            </rate>
                            <name>m.aff.wav</name>
                            <pathurl>file://localhost/C:/Users/nefve/Downloads/m.aff.wav</pathurl>
                            <media>
                                <audio>
                                    <channelcount>2</channelcount>
                                </audio>
                            </media>
                        </file>
                        <sourcetrack>
                            <mediatype>audio</mediatype>
                            <trackindex>1</trackindex>
                        </sourcetrack>
                        <filter>
                            <enabled>TRUE</enabled>
                            <start>0</start>
                            <end>1096</end>
                            <effect>
                                <name>Audio Levels</name>
                                <effectid>audiolevels</effectid>
                                <effecttype>audiolevels</effecttype>
                                <mediatype>audio</mediatype>
                                <effectcategory>audiolevels</effectcategory>
                                <parameter>
                                    <name>Level</name>
                                    <parameterid>level</parameterid>
                                    <value>1</value>
                                    <valuemin>1e-05</valuemin>
                                    <valuemax>31.6228</valuemax>
                                </parameter>
                            </effect>
                        </filter>
                        <filter>
                            <enabled>TRUE</enabled>
                            <start>0</start>
                            <end>1096</end>
                            <effect>
                                <name>Audio Pan</name>
                                <effectid>audiopan</effectid>
                                <effecttype>audiopan</effecttype>
                                <mediatype>audio</mediatype>
                                <effectcategory>audiopan</effectcategory>
                                <parameter>
                                    <name>Pan</name>
                                    <parameterid>pan</parameterid>
                                    <value>0</value>
                                    <valuemin>-1</valuemin>
                                    <valuemax>1</valuemax>
                                </parameter>
                            </effect>
                        </filter>
                        <comments/>
                    </clipitem>
                    <enabled>TRUE</enabled>
                    <locked>FALSE</locked>
                </track>
                <track>
                    <clipitem id="dark-mystery-trailer-taking-our-time-131566.mp3 0">
                        <name>dark-mystery-trailer-taking-our-time-131566.mp3</name>
                        <duration>2882</duration>
                        <rate>
                            <timebase>60</timebase>
                            <ntsc>FALSE</ntsc>
                        </rate>
                        <start>0</start>
                        <end>1083</end>
                        <enabled>TRUE</enabled>
                        <in>10</in>
                        <out>1093</out>
                        <file id="dark-mystery-trailer-taking-our-time-131566.mp3 1">
                            <duration>2882</duration>
                            <rate>
                                <timebase>60</timebase>
                                <ntsc>FALSE</ntsc>
                            </rate>
                            <name>dark-mystery-trailer-taking-our-time-131566.mp3</name>
                            <pathurl>file://localhost/C:/Users/nefve/Downloads/dark-mystery-trailer-taking-our-time-131566.mp3</pathurl>
                            <media>
                                <audio>
                                    <channelcount>2</channelcount>
                                </audio>
                            </media>
                        </file>
                        <sourcetrack>
                            <mediatype>audio</mediatype>
                            <trackindex>1</trackindex>
                        </sourcetrack>
                        <filter>
                            <enabled>TRUE</enabled>
                            <start>0</start>
                            <end>2882</end>
                            <effect>
                                <name>Audio Levels</name>
                                <effectid>audiolevels</effectid>
                                <effecttype>audiolevels</effecttype>
                                <mediatype>audio</mediatype>
                                <effectcategory>audiolevels</effectcategory>
                                <parameter>
                                    <name>Level</name>
                                    <parameterid>level</parameterid>
                                    <value>1</value>
                                    <valuemin>1e-05</valuemin>
                                    <valuemax>31.6228</valuemax>
                                </parameter>
                            </effect>
                        </filter>
                        <filter>
                            <enabled>TRUE</enabled>
                            <start>0</start>
                            <end>2882</end>
                            <effect>
                                <name>Audio Pan</name>
                                <effectid>audiopan</effectid>
                                <effecttype>audiopan</effecttype>
                                <mediatype>audio</mediatype>
                                <effectcategory>audiopan</effectcategory>
                                <parameter>
                                    <name>Pan</name>
                                    <parameterid>pan</parameterid>
                                    <value>0</value>
                                    <valuemin>-1</valuemin>
                                    <valuemax>1</valuemax>
                                </parameter>
                            </effect>
                        </filter>
                        <comments/>
                    </clipitem>
                    <enabled>TRUE</enabled>
                    <locked>FALSE</locked>
                </track>
                <track>
                    <clipitem id="cinematic-glitch-fear-183842.mp3 0">
                        <name>cinematic-glitch-fear-183842.mp3</name>
                        <duration>158</duration>
                        <rate>
                            <timebase>60</timebase>
                            <ntsc>FALSE</ntsc>
                        </rate>
                        <start>0</start>
                        <end>51</end>
                        <enabled>TRUE</enabled>
                        <in>7</in>
                        <out>58</out>
                        <file id="cinematic-glitch-fear-183842.mp3 1">
                            <duration>158</duration>
                            <rate>
                                <timebase>60</timebase>
                                <ntsc>FALSE</ntsc>
                            </rate>
                            <name>cinematic-glitch-fear-183842.mp3</name>
                            <pathurl>file://localhost/C:/Users/nefve/Downloads/cinematic-glitch-fear-183842.mp3</pathurl>
                            <media>
                                <audio>
                                    <channelcount>2</channelcount>
                                </audio>
                            </media>
                        </file>
                        <sourcetrack>
                            <mediatype>audio</mediatype>
                            <trackindex>1</trackindex>
                        </sourcetrack>
                        <filter>
                            <enabled>TRUE</enabled>
                            <start>0</start>
                            <end>158</end>
                            <effect>
                                <name>Audio Levels</name>
                                <effectid>audiolevels</effectid>
                                <effecttype>audiolevels</effecttype>
                                <mediatype>audio</mediatype>
                                <effectcategory>audiolevels</effectcategory>
                                <parameter>
                                    <name>Level</name>
                                    <parameterid>level</parameterid>
                                    <value>1</value>
                                    <valuemin>1e-05</valuemin>
                                    <valuemax>31.6228</valuemax>
                                </parameter>
                            </effect>
                        </filter>
                        <filter>
                            <enabled>TRUE</enabled>
                            <start>0</start>
                            <end>158</end>
                            <effect>
                                <name>Audio Pan</name>
                                <effectid>audiopan</effectid>
                                <effecttype>audiopan</effecttype>
                                <mediatype>audio</mediatype>
                                <effectcategory>audiopan</effectcategory>
                                <parameter>
                                    <name>Pan</name>
                                    <parameterid>pan</parameterid>
                                    <value>0</value>
                                    <valuemin>-1</valuemin>
                                    <valuemax>1</valuemax>
                                </parameter>
                            </effect>
                        </filter>
                        <comments/>
                    </clipitem>
                    <clipitem id="cinematic-glitch-fear-183842.mp3 2">
                        <name>cinematic-glitch-fear-183842.mp3</name>
                        <duration>158</duration>
                        <rate>
                            <timebase>60</timebase>
                            <ntsc>FALSE</ntsc>
                        </rate>
                        <start>51</start>
                        <end>148</end>
                        <enabled>TRUE</enabled>
                        <in>0</in>
                        <out>97</out>
                        <file id="cinematic-glitch-fear-183842.mp3 1"/>
                        <sourcetrack>
                            <mediatype>audio</mediatype>
                            <trackindex>1</trackindex>
                        </sourcetrack>
                        <filter>
                            <enabled>TRUE</enabled>
                            <start>0</start>
                            <end>158</end>
                            <effect>
                                <name>Audio Levels</name>
                                <effectid>audiolevels</effectid>
                                <effecttype>audiolevels</effecttype>
                                <mediatype>audio</mediatype>
                                <effectcategory>audiolevels</effectcategory>
                                <parameter>
                                    <name>Level</name>
                                    <parameterid>level</parameterid>
                                    <value>1</value>
                                    <valuemin>1e-05</valuemin>
                                    <valuemax>31.6228</valuemax>
                                </parameter>
                            </effect>
                        </filter>
                        <filter>
                            <enabled>TRUE</enabled>
                            <start>0</start>
                            <end>158</end>
                            <effect>
                                <name>Audio Pan</name>
                                <effectid>audiopan</effectid>
                                <effecttype>audiopan</effecttype>
                                <mediatype>audio</mediatype>
                                <effectcategory>audiopan</effectcategory>
                                <parameter>
                                    <name>Pan</name>
                                    <parameterid>pan</parameterid>
                                    <value>0</value>
                                    <valuemin>-1</valuemin>
                                    <valuemax>1</valuemax>
                                </parameter>
                            </effect>
                        </filter>
                        <comments/>
                    </clipitem>
                    <clipitem id="cinematic-glitch-fear-183842.mp3 3">
                        <name>cinematic-glitch-fear-183842.mp3</name>
                        <duration>158</duration>
                        <rate>
                            <timebase>60</timebase>
                            <ntsc>FALSE</ntsc>
                        </rate>
                        <start>148</start>
                        <end>245</end>
                        <enabled>TRUE</enabled>
                        <in>0</in>
                        <out>97</out>
                        <file id="cinematic-glitch-fear-183842.mp3 1"/>
                        <sourcetrack>
                            <mediatype>audio</mediatype>
                            <trackindex>1</trackindex>
                        </sourcetrack>
                        <filter>
                            <enabled>TRUE</enabled>
                            <start>0</start>
                            <end>158</end>
                            <effect>
                                <name>Audio Levels</name>
                                <effectid>audiolevels</effectid>
                                <effecttype>audiolevels</effecttype>
                                <mediatype>audio</mediatype>
                                <effectcategory>audiolevels</effectcategory>
                                <parameter>
                                    <name>Level</name>
                                    <parameterid>level</parameterid>
                                    <value>1</value>
                                    <valuemin>1e-05</valuemin>
                                    <valuemax>31.6228</valuemax>
                                </parameter>
                            </effect>
                        </filter>
                        <filter>
                            <enabled>TRUE</enabled>
                            <start>0</start>
                            <end>158</end>
                            <effect>
                                <name>Audio Pan</name>
                                <effectid>audiopan</effectid>
                                <effecttype>audiopan</effecttype>
                                <mediatype>audio</mediatype>
                                <effectcategory>audiopan</effectcategory>
                                <parameter>
                                    <name>Pan</name>
                                    <parameterid>pan</parameterid>
                                    <value>0</value>
                                    <valuemin>-1</valuemin>
                                    <valuemax>1</valuemax>
                                </parameter>
                            </effect>
                        </filter>
                        <comments/>
                    </clipitem>
                    <clipitem id="cinematic-glitch-fear-183842.mp3 4">
                        <name>cinematic-glitch-fear-183842.mp3</name>
                        <duration>158</duration>
                        <rate>
                            <timebase>60</timebase>
                            <ntsc>FALSE</ntsc>
                        </rate>
                        <start>245</start>
                        <end>342</end>
                        <enabled>TRUE</enabled>
                        <in>0</in>
                        <out>97</out>
                        <file id="cinematic-glitch-fear-183842.mp3 1"/>
                        <sourcetrack>
                            <mediatype>audio</mediatype>
                            <trackindex>1</trackindex>
                        </sourcetrack>
                        <filter>
                            <enabled>TRUE</enabled>
                            <start>0</start>
                            <end>158</end>
                            <effect>
                                <name>Audio Levels</name>
                                <effectid>audiolevels</effectid>
                                <effecttype>audiolevels</effecttype>
                                <mediatype>audio</mediatype>
                                <effectcategory>audiolevels</effectcategory>
                                <parameter>
                                    <name>Level</name>
                                    <parameterid>level</parameterid>
                                    <value>1</value>
                                    <valuemin>1e-05</valuemin>
                                    <valuemax>31.6228</valuemax>
                                </parameter>
                            </effect>
                        </filter>
                        <filter>
                            <enabled>TRUE</enabled>
                            <start>0</start>
                            <end>158</end>
                            <effect>
                                <name>Audio Pan</name>
                                <effectid>audiopan</effectid>
                                <effecttype>audiopan</effecttype>
                                <mediatype>audio</mediatype>
                                <effectcategory>audiopan</effectcategory>
                                <parameter>
                                    <name>Pan</name>
                                    <parameterid>pan</parameterid>
                                    <value>0</value>
                                    <valuemin>-1</valuemin>
                                    <valuemax>1</valuemax>
                                </parameter>
                            </effect>
                        </filter>
                        <comments/>
                    </clipitem>
                    <clipitem id="cinematic-glitch-fear-183842.mp3 5">
                        <name>cinematic-glitch-fear-183842.mp3</name>
                        <duration>158</duration>
                        <rate>
                            <timebase>60</timebase>
                            <ntsc>FALSE</ntsc>
                        </rate>
                        <start>342</start>
                        <end>439</end>
                        <enabled>TRUE</enabled>
                        <in>0</in>
                        <out>97</out>
                        <file id="cinematic-glitch-fear-183842.mp3 1"/>
                        <sourcetrack>
                            <mediatype>audio</mediatype>
                            <trackindex>1</trackindex>
                        </sourcetrack>
                        <filter>
                            <enabled>TRUE</enabled>
                            <start>0</start>
                            <end>158</end>
                            <effect>
                                <name>Audio Levels</name>
                                <effectid>audiolevels</effectid>
                                <effecttype>audiolevels</effecttype>
                                <mediatype>audio</mediatype>
                                <effectcategory>audiolevels</effectcategory>
                                <parameter>
                                    <name>Level</name>
                                    <parameterid>level</parameterid>
                                    <value>1</value>
                                    <valuemin>1e-05</valuemin>
                                    <valuemax>31.6228</valuemax>
                                </parameter>
                            </effect>
                        </filter>
                        <filter>
                            <enabled>TRUE</enabled>
                            <start>0</start>
                            <end>158</end>
                            <effect>
                                <name>Audio Pan</name>
                                <effectid>audiopan</effectid>
                                <effecttype>audiopan</effecttype>
                                <mediatype>audio</mediatype>
                                <effectcategory>audiopan</effectcategory>
                                <parameter>
                                    <name>Pan</name>
                                    <parameterid>pan</parameterid>
                                    <value>0</value>
                                    <valuemin>-1</valuemin>
                                    <valuemax>1</valuemax>
                                </parameter>
                            </effect>
                        </filter>
                        <comments/>
                    </clipitem>
                    <clipitem id="cinematic-glitch-fear-183842.mp3 6">
                        <name>cinematic-glitch-fear-183842.mp3</name>
                        <duration>158</duration>
                        <rate>
                            <timebase>60</timebase>
                            <ntsc>FALSE</ntsc>
                        </rate>
                        <start>439</start>
                        <end>536</end>
                        <enabled>TRUE</enabled>
                        <in>0</in>
                        <out>97</out>
                        <file id="cinematic-glitch-fear-183842.mp3 1"/>
                        <sourcetrack>
                            <mediatype>audio</mediatype>
                            <trackindex>1</trackindex>
                        </sourcetrack>
                        <filter>
                            <enabled>TRUE</enabled>
                            <start>0</start>
                            <end>158</end>
                            <effect>
                                <name>Audio Levels</name>
                                <effectid>audiolevels</effectid>
                                <effecttype>audiolevels</effecttype>
                                <mediatype>audio</mediatype>
                                <effectcategory>audiolevels</effectcategory>
                                <parameter>
                                    <name>Level</name>
                                    <parameterid>level</parameterid>
                                    <value>1</value>
                                    <valuemin>1e-05</valuemin>
                                    <valuemax>31.6228</valuemax>
                                </parameter>
                            </effect>
                        </filter>
                        <filter>
                            <enabled>TRUE</enabled>
                            <start>0</start>
                            <end>158</end>
                            <effect>
                                <name>Audio Pan</name>
                                <effectid>audiopan</effectid>
                                <effecttype>audiopan</effecttype>
                                <mediatype>audio</mediatype>
                                <effectcategory>audiopan</effectcategory>
                                <parameter>
                                    <name>Pan</name>
                                    <parameterid>pan</parameterid>
                                    <value>0</value>
                                    <valuemin>-1</valuemin>
                                    <valuemax>1</valuemax>
                                </parameter>
                            </effect>
                        </filter>
                        <comments/>
                    </clipitem>
                    <clipitem id="cinematic-glitch-fear-183842.mp3 7">
                        <name>cinematic-glitch-fear-183842.mp3</name>
                        <duration>158</duration>
                        <rate>
                            <timebase>60</timebase>
                            <ntsc>FALSE</ntsc>
                        </rate>
                        <start>536</start>
                        <end>633</end>
                        <enabled>TRUE</enabled>
                        <in>0</in>
                        <out>97</out>
                        <file id="cinematic-glitch-fear-183842.mp3 1"/>
                        <sourcetrack>
                            <mediatype>audio</mediatype>
                            <trackindex>1</trackindex>
                        </sourcetrack>
                        <filter>
                            <enabled>TRUE</enabled>
                            <start>0</start>
                            <end>158</end>
                            <effect>
                                <name>Audio Levels</name>
                                <effectid>audiolevels</effectid>
                                <effecttype>audiolevels</effecttype>
                                <mediatype>audio</mediatype>
                                <effectcategory>audiolevels</effectcategory>
                                <parameter>
                                    <name>Level</name>
                                    <parameterid>level</parameterid>
                                    <value>1</value>
                                    <valuemin>1e-05</valuemin>
                                    <valuemax>31.6228</valuemax>
                                </parameter>
                            </effect>
                        </filter>
                        <filter>
                            <enabled>TRUE</enabled>
                            <start>0</start>
                            <end>158</end>
                            <effect>
                                <name>Audio Pan</name>
                                <effectid>audiopan</effectid>
                                <effecttype>audiopan</effecttype>
                                <mediatype>audio</mediatype>
                                <effectcategory>audiopan</effectcategory>
                                <parameter>
                                    <name>Pan</name>
                                    <parameterid>pan</parameterid>
                                    <value>0</value>
                                    <valuemin>-1</valuemin>
                                    <valuemax>1</valuemax>
                                </parameter>
                            </effect>
                        </filter>
                        <comments/>
                    </clipitem>
                    <clipitem id="cinematic-glitch-fear-183842.mp3 8">
                        <name>cinematic-glitch-fear-183842.mp3</name>
                        <duration>158</duration>
                        <rate>
                            <timebase>60</timebase>
                            <ntsc>FALSE</ntsc>
                        </rate>
                        <start>633</start>
                        <end>730</end>
                        <enabled>TRUE</enabled>
                        <in>0</in>
                        <out>97</out>
                        <file id="cinematic-glitch-fear-183842.mp3 1"/>
                        <sourcetrack>
                            <mediatype>audio</mediatype>
                            <trackindex>1</trackindex>
                        </sourcetrack>
                        <filter>
                            <enabled>TRUE</enabled>
                            <start>0</start>
                            <end>158</end>
                            <effect>
                                <name>Audio Levels</name>
                                <effectid>audiolevels</effectid>
                                <effecttype>audiolevels</effecttype>
                                <mediatype>audio</mediatype>
                                <effectcategory>audiolevels</effectcategory>
                                <parameter>
                                    <name>Level</name>
                                    <parameterid>level</parameterid>
                                    <value>1</value>
                                    <valuemin>1e-05</valuemin>
                                    <valuemax>31.6228</valuemax>
                                </parameter>
                            </effect>
                        </filter>
                        <filter>
                            <enabled>TRUE</enabled>
                            <start>0</start>
                            <end>158</end>
                            <effect>
                                <name>Audio Pan</name>
                                <effectid>audiopan</effectid>
                                <effecttype>audiopan</effecttype>
                                <mediatype>audio</mediatype>
                                <effectcategory>audiopan</effectcategory>
                                <parameter>
                                    <name>Pan</name>
                                    <parameterid>pan</parameterid>
                                    <value>0</value>
                                    <valuemin>-1</valuemin>
                                    <valuemax>1</valuemax>
                                </parameter>
                            </effect>
                        </filter>
                        <comments/>
                    </clipitem>
                    <clipitem id="cinematic-glitch-fear-183842.mp3 9">
                        <name>cinematic-glitch-fear-183842.mp3</name>
                        <duration>158</duration>
                        <rate>
                            <timebase>60</timebase>
                            <ntsc>FALSE</ntsc>
                        </rate>
                        <start>730</start>
                        <end>827</end>
                        <enabled>TRUE</enabled>
                        <in>0</in>
                        <out>97</out>
                        <file id="cinematic-glitch-fear-183842.mp3 1"/>
                        <sourcetrack>
                            <mediatype>audio</mediatype>
                            <trackindex>1</trackindex>
                        </sourcetrack>
                        <filter>
                            <enabled>TRUE</enabled>
                            <start>0</start>
                            <end>158</end>
                            <effect>
                                <name>Audio Levels</name>
                                <effectid>audiolevels</effectid>
                                <effecttype>audiolevels</effecttype>
                                <mediatype>audio</mediatype>
                                <effectcategory>audiolevels</effectcategory>
                                <parameter>
                                    <name>Level</name>
                                    <parameterid>level</parameterid>
                                    <value>1</value>
                                    <valuemin>1e-05</valuemin>
                                    <valuemax>31.6228</valuemax>
                                </parameter>
                            </effect>
                        </filter>
                        <filter>
                            <enabled>TRUE</enabled>
                            <start>0</start>
                            <end>158</end>
                            <effect>
                                <name>Audio Pan</name>
                                <effectid>audiopan</effectid>
                                <effecttype>audiopan</effecttype>
                                <mediatype>audio</mediatype>
                                <effectcategory>audiopan</effectcategory>
                                <parameter>
                                    <name>Pan</name>
                                    <parameterid>pan</parameterid>
                                    <value>0</value>
                                    <valuemin>-1</valuemin>
                                    <valuemax>1</valuemax>
                                </parameter>
                            </effect>
                        </filter>
                        <comments/>
                    </clipitem>
                    <clipitem id="cinematic-glitch-fear-183842.mp3 10">
                        <name>cinematic-glitch-fear-183842.mp3</name>
                        <duration>158</duration>
                        <rate>
                            <timebase>60</timebase>
                            <ntsc>FALSE</ntsc>
                        </rate>
                        <start>827</start>
                        <end>924</end>
                        <enabled>TRUE</enabled>
                        <in>0</in>
                        <out>97</out>
                        <file id="cinematic-glitch-fear-183842.mp3 1"/>
                        <sourcetrack>
                            <mediatype>audio</mediatype>
                            <trackindex>1</trackindex>
                        </sourcetrack>
                        <filter>
                            <enabled>TRUE</enabled>
                            <start>0</start>
                            <end>158</end>
                            <effect>
                                <name>Audio Levels</name>
                                <effectid>audiolevels</effectid>
                                <effecttype>audiolevels</effecttype>
                                <mediatype>audio</mediatype>
                                <effectcategory>audiolevels</effectcategory>
                                <parameter>
                                    <name>Level</name>
                                    <parameterid>level</parameterid>
                                    <value>1</value>
                                    <valuemin>1e-05</valuemin>
                                    <valuemax>31.6228</valuemax>
                                </parameter>
                            </effect>
                        </filter>
                        <filter>
                            <enabled>TRUE</enabled>
                            <start>0</start>
                            <end>158</end>
                            <effect>
                                <name>Audio Pan</name>
                                <effectid>audiopan</effectid>
                                <effecttype>audiopan</effecttype>
                                <mediatype>audio</mediatype>
                                <effectcategory>audiopan</effectcategory>
                                <parameter>
                                    <name>Pan</name>
                                    <parameterid>pan</parameterid>
                                    <value>0</value>
                                    <valuemin>-1</valuemin>
                                    <valuemax>1</valuemax>
                                </parameter>
                            </effect>
                        </filter>
                        <comments/>
                    </clipitem>
                    <clipitem id="cinematic-glitch-fear-183842.mp3 11">
                        <name>cinematic-glitch-fear-183842.mp3</name>
                        <duration>158</duration>
                        <rate>
                            <timebase>60</timebase>
                            <ntsc>FALSE</ntsc>
                        </rate>
                        <start>924</start>
                        <end>960</end>
                        <enabled>TRUE</enabled>
                        <in>0</in>
                        <out>36</out>
                        <file id="cinematic-glitch-fear-183842.mp3 1"/>
                        <sourcetrack>
                            <mediatype>audio</mediatype>
                            <trackindex>1</trackindex>
                        </sourcetrack>
                        <filter>
                            <enabled>TRUE</enabled>
                            <start>0</start>
                            <end>158</end>
                            <effect>
                                <name>Audio Levels</name>
                                <effectid>audiolevels</effectid>
                                <effecttype>audiolevels</effecttype>
                                <mediatype>audio</mediatype>
                                <effectcategory>audiolevels</effectcategory>
                                <parameter>
                                    <name>Level</name>
                                    <parameterid>level</parameterid>
                                    <value>1</value>
                                    <valuemin>1e-05</valuemin>
                                    <valuemax>31.6228</valuemax>
                                </parameter>
                            </effect>
                        </filter>
                        <filter>
                            <enabled>TRUE</enabled>
                            <start>0</start>
                            <end>158</end>
                            <effect>
                                <name>Audio Pan</name>
                                <effectid>audiopan</effectid>
                                <effecttype>audiopan</effecttype>
                                <mediatype>audio</mediatype>
                                <effectcategory>audiopan</effectcategory>
                                <parameter>
                                    <name>Pan</name>
                                    <parameterid>pan</parameterid>
                                    <value>0</value>
                                    <valuemin>-1</valuemin>
                                    <valuemax>1</valuemax>
                                </parameter>
                            </effect>
                        </filter>
                        <comments/>
                    </clipitem>
                    <enabled>TRUE</enabled>
                    <locked>FALSE</locked>
                </track>
                <track>
                    <clipitem id="groovy-ambient-funk-201745.mp3 0">
                        <name>groovy-ambient-funk-201745.mp3</name>
                        <duration>8161</duration>
                        <rate>
                            <timebase>60</timebase>
                            <ntsc>FALSE</ntsc>
                        </rate>
                        <start>0</start>
                        <end>1086</end>
                        <enabled>TRUE</enabled>
                        <in>12</in>
                        <out>1098</out>
                        <file id="groovy-ambient-funk-201745.mp3 1">
                            <duration>8161</duration>
                            <rate>
                                <timebase>60</timebase>
                                <ntsc>FALSE</ntsc>
                            </rate>
                            <name>groovy-ambient-funk-201745.mp3</name>
                            <pathurl>file://localhost/C:/Users/nefve/Downloads/groovy-ambient-funk-201745.mp3</pathurl>
                            <media>
                                <audio>
                                    <channelcount>2</channelcount>
                                </audio>
                            </media>
                        </file>
                        <sourcetrack>
                            <mediatype>audio</mediatype>
                            <trackindex>1</trackindex>
                        </sourcetrack>
                        <filter>
                            <enabled>TRUE</enabled>
                            <start>0</start>
                            <end>8161</end>
                            <effect>
                                <name>Audio Levels</name>
                                <effectid>audiolevels</effectid>
                                <effecttype>audiolevels</effecttype>
                                <mediatype>audio</mediatype>
                                <effectcategory>audiolevels</effectcategory>
                                <parameter>
                                    <name>Level</name>
                                    <parameterid>level</parameterid>
                                    <value>1</value>
                                    <valuemin>1e-05</valuemin>
                                    <valuemax>31.6228</valuemax>
                                </parameter>
                            </effect>
                        </filter>
                        <filter>
                            <enabled>TRUE</enabled>
                            <start>0</start>
                            <end>8161</end>
                            <effect>
                                <name>Audio Pan</name>
                                <effectid>audiopan</effectid>
                                <effecttype>audiopan</effecttype>
                                <mediatype>audio</mediatype>
                                <effectcategory>audiopan</effectcategory>
                                <parameter>
                                    <name>Pan</name>
                                    <parameterid>pan</parameterid>
                                    <value>0</value>
                                    <valuemin>-1</valuemin>
                                    <valuemax>1</valuemax>
                                </parameter>
                            </effect>
                        </filter>
                        <comments/>
                    </clipitem>
                    <enabled>TRUE</enabled>
                    <locked>FALSE</locked>
                </track>
                <track>
                    <clipitem id="2024-05-04 19-36-43.mp4 0">
                        <name>2024-05-04 19-36-43.mp4</name>
                        <duration>225</duration>
                        <rate>
                            <timebase>60</timebase>
                            <ntsc>FALSE</ntsc>
                        </rate>
                        <start>0</start>
                        <end>20</end>
                        <enabled>TRUE</enabled>
                        <in>30</in>
                        <out>50</out>
                        <file id="2024-05-04 19-36-43.mp4 1">
                            <duration>225</duration>
                            <rate>
                                <timebase>60</timebase>
                                <ntsc>FALSE</ntsc>
                            </rate>
                            <name>2024-05-04 19-36-43.mp4</name>
                            <pathurl>file://localhost/C:/Users/nefve/OneDrive/FE/FE%20HTML,%20CSS,%20JavaSkript,%20Pyhon%20&amp;%20C++/videos/2024-05-04%2019-36-43.mp4</pathurl>
                            <media>
                                <audio>
                                    <channelcount>2</channelcount>
                                </audio>
                            </media>
                        </file>
                        <sourcetrack>
                            <mediatype>audio</mediatype>
                            <trackindex>1</trackindex>
                        </sourcetrack>
                        <filter>
                            <enabled>TRUE</enabled>
                            <start>0</start>
                            <end>225</end>
                            <effect>
                                <name>Audio Levels</name>
                                <effectid>audiolevels</effectid>
                                <effecttype>audiolevels</effecttype>
                                <mediatype>audio</mediatype>
                                <effectcategory>audiolevels</effectcategory>
                                <parameter>
                                    <name>Level</name>
                                    <parameterid>level</parameterid>
                                    <value>0.346737</value>
                                    <valuemin>1e-05</valuemin>
                                    <valuemax>31.6228</valuemax>
                                </parameter>
                            </effect>
                        </filter>
                        <filter>
                            <enabled>TRUE</enabled>
                            <start>0</start>
                            <end>225</end>
                            <effect>
                                <name>Audio Pan</name>
                                <effectid>audiopan</effectid>
                                <effecttype>audiopan</effecttype>
                                <mediatype>audio</mediatype>
                                <effectcategory>audiopan</effectcategory>
                                <parameter>
                                    <name>Pan</name>
                                    <parameterid>pan</parameterid>
                                    <value>0</value>
                                    <valuemin>-1</valuemin>
                                    <valuemax>1</valuemax>
                                </parameter>
                            </effect>
                        </filter>
                        <comments/>
                    </clipitem>
                    <clipitem id="2024-05-04 19-36-43.mp4 2">
                        <name>2024-05-04 19-36-43.mp4</name>
                        <duration>225</duration>
                        <rate>
                            <timebase>60</timebase>
                            <ntsc>FALSE</ntsc>
                        </rate>
                        <start>20</start>
                        <end>22</end>
                        <enabled>TRUE</enabled>
                        <in>122</in>
                        <out>124</out>
                        <file id="2024-05-04 19-36-43.mp4 1"/>
                        <sourcetrack>
                            <mediatype>audio</mediatype>
                            <trackindex>1</trackindex>
                        </sourcetrack>
                        <filter>
                            <enabled>TRUE</enabled>
                            <start>0</start>
                            <end>225</end>
                            <effect>
                                <name>Audio Levels</name>
                                <effectid>audiolevels</effectid>
                                <effecttype>audiolevels</effecttype>
                                <mediatype>audio</mediatype>
                                <effectcategory>audiolevels</effectcategory>
                                <parameter>
                                    <name>Level</name>
                                    <parameterid>level</parameterid>
                                    <value>0.346737</value>
                                    <valuemin>1e-05</valuemin>
                                    <valuemax>31.6228</valuemax>
                                </parameter>
                            </effect>
                        </filter>
                        <filter>
                            <enabled>TRUE</enabled>
                            <start>0</start>
                            <end>225</end>
                            <effect>
                                <name>Audio Pan</name>
                                <effectid>audiopan</effectid>
                                <effecttype>audiopan</effecttype>
                                <mediatype>audio</mediatype>
                                <effectcategory>audiopan</effectcategory>
                                <parameter>
                                    <name>Pan</name>
                                    <parameterid>pan</parameterid>
                                    <value>0</value>
                                    <valuemin>-1</valuemin>
                                    <valuemax>1</valuemax>
                                </parameter>
                            </effect>
                        </filter>
                        <comments/>
                    </clipitem>
                    <clipitem id="2024-05-04 19-36-43.mp4 3">
                        <name>2024-05-04 19-36-43.mp4</name>
                        <duration>225</duration>
                        <rate>
                            <timebase>60</timebase>
                            <ntsc>FALSE</ntsc>
                        </rate>
                        <start>22</start>
                        <end>42</end>
                        <enabled>TRUE</enabled>
                        <in>30</in>
                        <out>50</out>
                        <file id="2024-05-04 19-36-43.mp4 1"/>
                        <sourcetrack>
                            <mediatype>audio</mediatype>
                            <trackindex>1</trackindex>
                        </sourcetrack>
                        <filter>
                            <enabled>TRUE</enabled>
                            <start>0</start>
                            <end>225</end>
                            <effect>
                                <name>Audio Levels</name>
                                <effectid>audiolevels</effectid>
                                <effecttype>audiolevels</effecttype>
                                <mediatype>audio</mediatype>
                                <effectcategory>audiolevels</effectcategory>
                                <parameter>
                                    <name>Level</name>
                                    <parameterid>level</parameterid>
                                    <value>0.346737</value>
                                    <valuemin>1e-05</valuemin>
                                    <valuemax>31.6228</valuemax>
                                </parameter>
                            </effect>
                        </filter>
                        <filter>
                            <enabled>TRUE</enabled>
                            <start>0</start>
                            <end>225</end>
                            <effect>
                                <name>Audio Pan</name>
                                <effectid>audiopan</effectid>
                                <effecttype>audiopan</effecttype>
                                <mediatype>audio</mediatype>
                                <effectcategory>audiopan</effectcategory>
                                <parameter>
                                    <name>Pan</name>
                                    <parameterid>pan</parameterid>
                                    <value>0</value>
                                    <valuemin>-1</valuemin>
                                    <valuemax>1</valuemax>
                                </parameter>
                            </effect>
                        </filter>
                        <comments/>
                    </clipitem>
                    <clipitem id="2024-05-04 19-36-43.mp4 4">
                        <name>2024-05-04 19-36-43.mp4</name>
                        <duration>225</duration>
                        <rate>
                            <timebase>60</timebase>
                            <ntsc>FALSE</ntsc>
                        </rate>
                        <start>42</start>
                        <end>70</end>
                        <enabled>TRUE</enabled>
                        <in>122</in>
                        <out>150</out>
                        <file id="2024-05-04 19-36-43.mp4 1"/>
                        <sourcetrack>
                            <mediatype>audio</mediatype>
                            <trackindex>1</trackindex>
                        </sourcetrack>
                        <filter>
                            <enabled>TRUE</enabled>
                            <start>0</start>
                            <end>225</end>
                            <effect>
                                <name>Audio Levels</name>
                                <effectid>audiolevels</effectid>
                                <effecttype>audiolevels</effecttype>
                                <mediatype>audio</mediatype>
                                <effectcategory>audiolevels</effectcategory>
                                <parameter>
                                    <name>Level</name>
                                    <parameterid>level</parameterid>
                                    <value>0.346737</value>
                                    <valuemin>1e-05</valuemin>
                                    <valuemax>31.6228</valuemax>
                                </parameter>
                            </effect>
                        </filter>
                        <filter>
                            <enabled>TRUE</enabled>
                            <start>0</start>
                            <end>225</end>
                            <effect>
                                <name>Audio Pan</name>
                                <effectid>audiopan</effectid>
                                <effecttype>audiopan</effecttype>
                                <mediatype>audio</mediatype>
                                <effectcategory>audiopan</effectcategory>
                                <parameter>
                                    <name>Pan</name>
                                    <parameterid>pan</parameterid>
                                    <value>0</value>
                                    <valuemin>-1</valuemin>
                                    <valuemax>1</valuemax>
                                </parameter>
                            </effect>
                        </filter>
                        <comments/>
                    </clipitem>
                    <clipitem id="2024-05-04 19-36-43.mp4 5">
                        <name>2024-05-04 19-36-43.mp4</name>
                        <duration>225</duration>
                        <rate>
                            <timebase>60</timebase>
                            <ntsc>FALSE</ntsc>
                        </rate>
                        <start>70</start>
                        <end>106</end>
                        <enabled>TRUE</enabled>
                        <in>189</in>
                        <out>225</out>
                        <file id="2024-05-04 19-36-43.mp4 1"/>
                        <sourcetrack>
                            <mediatype>audio</mediatype>
                            <trackindex>1</trackindex>
                        </sourcetrack>
                        <filter>
                            <enabled>TRUE</enabled>
                            <start>0</start>
                            <end>225</end>
                            <effect>
                                <name>Audio Levels</name>
                                <effectid>audiolevels</effectid>
                                <effecttype>audiolevels</effecttype>
                                <mediatype>audio</mediatype>
                                <effectcategory>audiolevels</effectcategory>
                                <parameter>
                                    <name>Level</name>
                                    <parameterid>level</parameterid>
                                    <value>0.346737</value>
                                    <valuemin>1e-05</valuemin>
                                    <valuemax>31.6228</valuemax>
                                </parameter>
                            </effect>
                        </filter>
                        <filter>
                            <enabled>TRUE</enabled>
                            <start>0</start>
                            <end>225</end>
                            <effect>
                                <name>Audio Pan</name>
                                <effectid>audiopan</effectid>
                                <effecttype>audiopan</effecttype>
                                <mediatype>audio</mediatype>
                                <effectcategory>audiopan</effectcategory>
                                <parameter>
                                    <name>Pan</name>
                                    <parameterid>pan</parameterid>
                                    <value>0</value>
                                    <valuemin>-1</valuemin>
                                    <valuemax>1</valuemax>
                                </parameter>
                            </effect>
                        </filter>
                        <comments/>
                    </clipitem>
                    <clipitem id="2024-05-04 19-36-43.mp4 6">
                        <name>2024-05-04 19-36-43.mp4</name>
                        <duration>225</duration>
                        <rate>
                            <timebase>60</timebase>
                            <ntsc>FALSE</ntsc>
                        </rate>
                        <start>106</start>
                        <end>126</end>
                        <enabled>TRUE</enabled>
                        <in>30</in>
                        <out>50</out>
                        <file id="2024-05-04 19-36-43.mp4 1"/>
                        <sourcetrack>
                            <mediatype>audio</mediatype>
                            <trackindex>1</trackindex>
                        </sourcetrack>
                        <filter>
                            <enabled>TRUE</enabled>
                            <start>0</start>
                            <end>225</end>
                            <effect>
                                <name>Audio Levels</name>
                                <effectid>audiolevels</effectid>
                                <effecttype>audiolevels</effecttype>
                                <mediatype>audio</mediatype>
                                <effectcategory>audiolevels</effectcategory>
                                <parameter>
                                    <name>Level</name>
                                    <parameterid>level</parameterid>
                                    <value>0.346737</value>
                                    <valuemin>1e-05</valuemin>
                                    <valuemax>31.6228</valuemax>
                                </parameter>
                            </effect>
                        </filter>
                        <filter>
                            <enabled>TRUE</enabled>
                            <start>0</start>
                            <end>225</end>
                            <effect>
                                <name>Audio Pan</name>
                                <effectid>audiopan</effectid>
                                <effecttype>audiopan</effecttype>
                                <mediatype>audio</mediatype>
                                <effectcategory>audiopan</effectcategory>
                                <parameter>
                                    <name>Pan</name>
                                    <parameterid>pan</parameterid>
                                    <value>0</value>
                                    <valuemin>-1</valuemin>
                                    <valuemax>1</valuemax>
                                </parameter>
                            </effect>
                        </filter>
                        <comments/>
                    </clipitem>
                    <clipitem id="2024-05-04 19-36-43.mp4 7">
                        <name>2024-05-04 19-36-43.mp4</name>
                        <duration>225</duration>
                        <rate>
                            <timebase>60</timebase>
                            <ntsc>FALSE</ntsc>
                        </rate>
                        <start>126</start>
                        <end>154</end>
                        <enabled>TRUE</enabled>
                        <in>122</in>
                        <out>150</out>
                        <file id="2024-05-04 19-36-43.mp4 1"/>
                        <sourcetrack>
                            <mediatype>audio</mediatype>
                            <trackindex>1</trackindex>
                        </sourcetrack>
                        <filter>
                            <enabled>TRUE</enabled>
                            <start>0</start>
                            <end>225</end>
                            <effect>
                                <name>Audio Levels</name>
                                <effectid>audiolevels</effectid>
                                <effecttype>audiolevels</effecttype>
                                <mediatype>audio</mediatype>
                                <effectcategory>audiolevels</effectcategory>
                                <parameter>
                                    <name>Level</name>
                                    <parameterid>level</parameterid>
                                    <value>0.346737</value>
                                    <valuemin>1e-05</valuemin>
                                    <valuemax>31.6228</valuemax>
                                </parameter>
                            </effect>
                        </filter>
                        <filter>
                            <enabled>TRUE</enabled>
                            <start>0</start>
                            <end>225</end>
                            <effect>
                                <name>Audio Pan</name>
                                <effectid>audiopan</effectid>
                                <effecttype>audiopan</effecttype>
                                <mediatype>audio</mediatype>
                                <effectcategory>audiopan</effectcategory>
                                <parameter>
                                    <name>Pan</name>
                                    <parameterid>pan</parameterid>
                                    <value>0</value>
                                    <valuemin>-1</valuemin>
                                    <valuemax>1</valuemax>
                                </parameter>
                            </effect>
                        </filter>
                        <comments/>
                    </clipitem>
                    <clipitem id="2024-05-04 19-36-43.mp4 8">
                        <name>2024-05-04 19-36-43.mp4</name>
                        <duration>225</duration>
                        <rate>
                            <timebase>60</timebase>
                            <ntsc>FALSE</ntsc>
                        </rate>
                        <start>154</start>
                        <end>190</end>
                        <enabled>TRUE</enabled>
                        <in>189</in>
                        <out>225</out>
                        <file id="2024-05-04 19-36-43.mp4 1"/>
                        <sourcetrack>
                            <mediatype>audio</mediatype>
                            <trackindex>1</trackindex>
                        </sourcetrack>
                        <filter>
                            <enabled>TRUE</enabled>
                            <start>0</start>
                            <end>225</end>
                            <effect>
                                <name>Audio Levels</name>
                                <effectid>audiolevels</effectid>
                                <effecttype>audiolevels</effecttype>
                                <mediatype>audio</mediatype>
                                <effectcategory>audiolevels</effectcategory>
                                <parameter>
                                    <name>Level</name>
                                    <parameterid>level</parameterid>
                                    <value>0.346737</value>
                                    <valuemin>1e-05</valuemin>
                                    <valuemax>31.6228</valuemax>
                                </parameter>
                            </effect>
                        </filter>
                        <filter>
                            <enabled>TRUE</enabled>
                            <start>0</start>
                            <end>225</end>
                            <effect>
                                <name>Audio Pan</name>
                                <effectid>audiopan</effectid>
                                <effecttype>audiopan</effecttype>
                                <mediatype>audio</mediatype>
                                <effectcategory>audiopan</effectcategory>
                                <parameter>
                                    <name>Pan</name>
                                    <parameterid>pan</parameterid>
                                    <value>0</value>
                                    <valuemin>-1</valuemin>
                                    <valuemax>1</valuemax>
                                </parameter>
                            </effect>
                        </filter>
                        <comments/>
                    </clipitem>
                    <clipitem id="2024-05-04 19-36-43.mp4 9">
                        <name>2024-05-04 19-36-43.mp4</name>
                        <duration>225</duration>
                        <rate>
                            <timebase>60</timebase>
                            <ntsc>FALSE</ntsc>
                        </rate>
                        <start>190</start>
                        <end>210</end>
                        <enabled>TRUE</enabled>
                        <in>30</in>
                        <out>50</out>
                        <file id="2024-05-04 19-36-43.mp4 1"/>
                        <sourcetrack>
                            <mediatype>audio</mediatype>
                            <trackindex>1</trackindex>
                        </sourcetrack>
                        <filter>
                            <enabled>TRUE</enabled>
                            <start>0</start>
                            <end>225</end>
                            <effect>
                                <name>Audio Levels</name>
                                <effectid>audiolevels</effectid>
                                <effecttype>audiolevels</effecttype>
                                <mediatype>audio</mediatype>
                                <effectcategory>audiolevels</effectcategory>
                                <parameter>
                                    <name>Level</name>
                                    <parameterid>level</parameterid>
                                    <value>0.346737</value>
                                    <valuemin>1e-05</valuemin>
                                    <valuemax>31.6228</valuemax>
                                </parameter>
                            </effect>
                        </filter>
                        <filter>
                            <enabled>TRUE</enabled>
                            <start>0</start>
                            <end>225</end>
                            <effect>
                                <name>Audio Pan</name>
                                <effectid>audiopan</effectid>
                                <effecttype>audiopan</effecttype>
                                <mediatype>audio</mediatype>
                                <effectcategory>audiopan</effectcategory>
                                <parameter>
                                    <name>Pan</name>
                                    <parameterid>pan</parameterid>
                                    <value>0</value>
                                    <valuemin>-1</valuemin>
                                    <valuemax>1</valuemax>
                                </parameter>
                            </effect>
                        </filter>
                        <comments/>
                    </clipitem>
                    <clipitem id="2024-05-04 19-36-43.mp4 10">
                        <name>2024-05-04 19-36-43.mp4</name>
                        <duration>225</duration>
                        <rate>
                            <timebase>60</timebase>
                            <ntsc>FALSE</ntsc>
                        </rate>
                        <start>210</start>
                        <end>238</end>
                        <enabled>TRUE</enabled>
                        <in>122</in>
                        <out>150</out>
                        <file id="2024-05-04 19-36-43.mp4 1"/>
                        <sourcetrack>
                            <mediatype>audio</mediatype>
                            <trackindex>1</trackindex>
                        </sourcetrack>
                        <filter>
                            <enabled>TRUE</enabled>
                            <start>0</start>
                            <end>225</end>
                            <effect>
                                <name>Audio Levels</name>
                                <effectid>audiolevels</effectid>
                                <effecttype>audiolevels</effecttype>
                                <mediatype>audio</mediatype>
                                <effectcategory>audiolevels</effectcategory>
                                <parameter>
                                    <name>Level</name>
                                    <parameterid>level</parameterid>
                                    <value>0.346737</value>
                                    <valuemin>1e-05</valuemin>
                                    <valuemax>31.6228</valuemax>
                                </parameter>
                            </effect>
                        </filter>
                        <filter>
                            <enabled>TRUE</enabled>
                            <start>0</start>
                            <end>225</end>
                            <effect>
                                <name>Audio Pan</name>
                                <effectid>audiopan</effectid>
                                <effecttype>audiopan</effecttype>
                                <mediatype>audio</mediatype>
                                <effectcategory>audiopan</effectcategory>
                                <parameter>
                                    <name>Pan</name>
                                    <parameterid>pan</parameterid>
                                    <value>0</value>
                                    <valuemin>-1</valuemin>
                                    <valuemax>1</valuemax>
                                </parameter>
                            </effect>
                        </filter>
                        <comments/>
                    </clipitem>
                    <clipitem id="2024-05-04 19-36-43.mp4 11">
                        <name>2024-05-04 19-36-43.mp4</name>
                        <duration>225</duration>
                        <rate>
                            <timebase>60</timebase>
                            <ntsc>FALSE</ntsc>
                        </rate>
                        <start>238</start>
                        <end>274</end>
                        <enabled>TRUE</enabled>
                        <in>189</in>
                        <out>225</out>
                        <file id="2024-05-04 19-36-43.mp4 1"/>
                        <sourcetrack>
                            <mediatype>audio</mediatype>
                            <trackindex>1</trackindex>
                        </sourcetrack>
                        <filter>
                            <enabled>TRUE</enabled>
                            <start>0</start>
                            <end>225</end>
                            <effect>
                                <name>Audio Levels</name>
                                <effectid>audiolevels</effectid>
                                <effecttype>audiolevels</effecttype>
                                <mediatype>audio</mediatype>
                                <effectcategory>audiolevels</effectcategory>
                                <parameter>
                                    <name>Level</name>
                                    <parameterid>level</parameterid>
                                    <value>0.346737</value>
                                    <valuemin>1e-05</valuemin>
                                    <valuemax>31.6228</valuemax>
                                </parameter>
                            </effect>
                        </filter>
                        <filter>
                            <enabled>TRUE</enabled>
                            <start>0</start>
                            <end>225</end>
                            <effect>
                                <name>Audio Pan</name>
                                <effectid>audiopan</effectid>
                                <effecttype>audiopan</effecttype>
                                <mediatype>audio</mediatype>
                                <effectcategory>audiopan</effectcategory>
                                <parameter>
                                    <name>Pan</name>
                                    <parameterid>pan</parameterid>
                                    <value>0</value>
                                    <valuemin>-1</valuemin>
                                    <valuemax>1</valuemax>
                                </parameter>
                            </effect>
                        </filter>
                        <comments/>
                    </clipitem>
                    <clipitem id="2024-05-04 19-36-43.mp4 12">
                        <name>2024-05-04 19-36-43.mp4</name>
                        <duration>225</duration>
                        <rate>
                            <timebase>60</timebase>
                            <ntsc>FALSE</ntsc>
                        </rate>
                        <start>274</start>
                        <end>294</end>
                        <enabled>TRUE</enabled>
                        <in>30</in>
                        <out>50</out>
                        <file id="2024-05-04 19-36-43.mp4 1"/>
                        <sourcetrack>
                            <mediatype>audio</mediatype>
                            <trackindex>1</trackindex>
                        </sourcetrack>
                        <filter>
                            <enabled>TRUE</enabled>
                            <start>0</start>
                            <end>225</end>
                            <effect>
                                <name>Audio Levels</name>
                                <effectid>audiolevels</effectid>
                                <effecttype>audiolevels</effecttype>
                                <mediatype>audio</mediatype>
                                <effectcategory>audiolevels</effectcategory>
                                <parameter>
                                    <name>Level</name>
                                    <parameterid>level</parameterid>
                                    <value>0.346737</value>
                                    <valuemin>1e-05</valuemin>
                                    <valuemax>31.6228</valuemax>
                                </parameter>
                            </effect>
                        </filter>
                        <filter>
                            <enabled>TRUE</enabled>
                            <start>0</start>
                            <end>225</end>
                            <effect>
                                <name>Audio Pan</name>
                                <effectid>audiopan</effectid>
                                <effecttype>audiopan</effecttype>
                                <mediatype>audio</mediatype>
                                <effectcategory>audiopan</effectcategory>
                                <parameter>
                                    <name>Pan</name>
                                    <parameterid>pan</parameterid>
                                    <value>0</value>
                                    <valuemin>-1</valuemin>
                                    <valuemax>1</valuemax>
                                </parameter>
                            </effect>
                        </filter>
                        <comments/>
                    </clipitem>
                    <clipitem id="2024-05-04 19-36-43.mp4 13">
                        <name>2024-05-04 19-36-43.mp4</name>
                        <duration>225</duration>
                        <rate>
                            <timebase>60</timebase>
                            <ntsc>FALSE</ntsc>
                        </rate>
                        <start>294</start>
                        <end>322</end>
                        <enabled>TRUE</enabled>
                        <in>122</in>
                        <out>150</out>
                        <file id="2024-05-04 19-36-43.mp4 1"/>
                        <sourcetrack>
                            <mediatype>audio</mediatype>
                            <trackindex>1</trackindex>
                        </sourcetrack>
                        <filter>
                            <enabled>TRUE</enabled>
                            <start>0</start>
                            <end>225</end>
                            <effect>
                                <name>Audio Levels</name>
                                <effectid>audiolevels</effectid>
                                <effecttype>audiolevels</effecttype>
                                <mediatype>audio</mediatype>
                                <effectcategory>audiolevels</effectcategory>
                                <parameter>
                                    <name>Level</name>
                                    <parameterid>level</parameterid>
                                    <value>0.346737</value>
                                    <valuemin>1e-05</valuemin>
                                    <valuemax>31.6228</valuemax>
                                </parameter>
                            </effect>
                        </filter>
                        <filter>
                            <enabled>TRUE</enabled>
                            <start>0</start>
                            <end>225</end>
                            <effect>
                                <name>Audio Pan</name>
                                <effectid>audiopan</effectid>
                                <effecttype>audiopan</effecttype>
                                <mediatype>audio</mediatype>
                                <effectcategory>audiopan</effectcategory>
                                <parameter>
                                    <name>Pan</name>
                                    <parameterid>pan</parameterid>
                                    <value>0</value>
                                    <valuemin>-1</valuemin>
                                    <valuemax>1</valuemax>
                                </parameter>
                            </effect>
                        </filter>
                        <comments/>
                    </clipitem>
                    <clipitem id="2024-05-04 19-36-43.mp4 14">
                        <name>2024-05-04 19-36-43.mp4</name>
                        <duration>225</duration>
                        <rate>
                            <timebase>60</timebase>
                            <ntsc>FALSE</ntsc>
                        </rate>
                        <start>322</start>
                        <end>358</end>
                        <enabled>TRUE</enabled>
                        <in>189</in>
                        <out>225</out>
                        <file id="2024-05-04 19-36-43.mp4 1"/>
                        <sourcetrack>
                            <mediatype>audio</mediatype>
                            <trackindex>1</trackindex>
                        </sourcetrack>
                        <filter>
                            <enabled>TRUE</enabled>
                            <start>0</start>
                            <end>225</end>
                            <effect>
                                <name>Audio Levels</name>
                                <effectid>audiolevels</effectid>
                                <effecttype>audiolevels</effecttype>
                                <mediatype>audio</mediatype>
                                <effectcategory>audiolevels</effectcategory>
                                <parameter>
                                    <name>Level</name>
                                    <parameterid>level</parameterid>
                                    <value>0.346737</value>
                                    <valuemin>1e-05</valuemin>
                                    <valuemax>31.6228</valuemax>
                                </parameter>
                            </effect>
                        </filter>
                        <filter>
                            <enabled>TRUE</enabled>
                            <start>0</start>
                            <end>225</end>
                            <effect>
                                <name>Audio Pan</name>
                                <effectid>audiopan</effectid>
                                <effecttype>audiopan</effecttype>
                                <mediatype>audio</mediatype>
                                <effectcategory>audiopan</effectcategory>
                                <parameter>
                                    <name>Pan</name>
                                    <parameterid>pan</parameterid>
                                    <value>0</value>
                                    <valuemin>-1</valuemin>
                                    <valuemax>1</valuemax>
                                </parameter>
                            </effect>
                        </filter>
                        <comments/>
                    </clipitem>
                    <clipitem id="2024-05-04 19-36-43.mp4 15">
                        <name>2024-05-04 19-36-43.mp4</name>
                        <duration>225</duration>
                        <rate>
                            <timebase>60</timebase>
                            <ntsc>FALSE</ntsc>
                        </rate>
                        <start>358</start>
                        <end>378</end>
                        <enabled>TRUE</enabled>
                        <in>30</in>
                        <out>50</out>
                        <file id="2024-05-04 19-36-43.mp4 1"/>
                        <sourcetrack>
                            <mediatype>audio</mediatype>
                            <trackindex>1</trackindex>
                        </sourcetrack>
                        <filter>
                            <enabled>TRUE</enabled>
                            <start>0</start>
                            <end>225</end>
                            <effect>
                                <name>Audio Levels</name>
                                <effectid>audiolevels</effectid>
                                <effecttype>audiolevels</effecttype>
                                <mediatype>audio</mediatype>
                                <effectcategory>audiolevels</effectcategory>
                                <parameter>
                                    <name>Level</name>
                                    <parameterid>level</parameterid>
                                    <value>0.346737</value>
                                    <valuemin>1e-05</valuemin>
                                    <valuemax>31.6228</valuemax>
                                </parameter>
                            </effect>
                        </filter>
                        <filter>
                            <enabled>TRUE</enabled>
                            <start>0</start>
                            <end>225</end>
                            <effect>
                                <name>Audio Pan</name>
                                <effectid>audiopan</effectid>
                                <effecttype>audiopan</effecttype>
                                <mediatype>audio</mediatype>
                                <effectcategory>audiopan</effectcategory>
                                <parameter>
                                    <name>Pan</name>
                                    <parameterid>pan</parameterid>
                                    <value>0</value>
                                    <valuemin>-1</valuemin>
                                    <valuemax>1</valuemax>
                                </parameter>
                            </effect>
                        </filter>
                        <comments/>
                    </clipitem>
                    <clipitem id="2024-05-04 19-36-43.mp4 16">
                        <name>2024-05-04 19-36-43.mp4</name>
                        <duration>225</duration>
                        <rate>
                            <timebase>60</timebase>
                            <ntsc>FALSE</ntsc>
                        </rate>
                        <start>378</start>
                        <end>406</end>
                        <enabled>TRUE</enabled>
                        <in>122</in>
                        <out>150</out>
                        <file id="2024-05-04 19-36-43.mp4 1"/>
                        <sourcetrack>
                            <mediatype>audio</mediatype>
                            <trackindex>1</trackindex>
                        </sourcetrack>
                        <filter>
                            <enabled>TRUE</enabled>
                            <start>0</start>
                            <end>225</end>
                            <effect>
                                <name>Audio Levels</name>
                                <effectid>audiolevels</effectid>
                                <effecttype>audiolevels</effecttype>
                                <mediatype>audio</mediatype>
                                <effectcategory>audiolevels</effectcategory>
                                <parameter>
                                    <name>Level</name>
                                    <parameterid>level</parameterid>
                                    <value>0.346737</value>
                                    <valuemin>1e-05</valuemin>
                                    <valuemax>31.6228</valuemax>
                                </parameter>
                            </effect>
                        </filter>
                        <filter>
                            <enabled>TRUE</enabled>
                            <start>0</start>
                            <end>225</end>
                            <effect>
                                <name>Audio Pan</name>
                                <effectid>audiopan</effectid>
                                <effecttype>audiopan</effecttype>
                                <mediatype>audio</mediatype>
                                <effectcategory>audiopan</effectcategory>
                                <parameter>
                                    <name>Pan</name>
                                    <parameterid>pan</parameterid>
                                    <value>0</value>
                                    <valuemin>-1</valuemin>
                                    <valuemax>1</valuemax>
                                </parameter>
                            </effect>
                        </filter>
                        <comments/>
                    </clipitem>
                    <clipitem id="2024-05-04 19-36-43.mp4 17">
                        <name>2024-05-04 19-36-43.mp4</name>
                        <duration>225</duration>
                        <rate>
                            <timebase>60</timebase>
                            <ntsc>FALSE</ntsc>
                        </rate>
                        <start>406</start>
                        <end>442</end>
                        <enabled>TRUE</enabled>
                        <in>189</in>
                        <out>225</out>
                        <file id="2024-05-04 19-36-43.mp4 1"/>
                        <sourcetrack>
                            <mediatype>audio</mediatype>
                            <trackindex>1</trackindex>
                        </sourcetrack>
                        <filter>
                            <enabled>TRUE</enabled>
                            <start>0</start>
                            <end>225</end>
                            <effect>
                                <name>Audio Levels</name>
                                <effectid>audiolevels</effectid>
                                <effecttype>audiolevels</effecttype>
                                <mediatype>audio</mediatype>
                                <effectcategory>audiolevels</effectcategory>
                                <parameter>
                                    <name>Level</name>
                                    <parameterid>level</parameterid>
                                    <value>0.346737</value>
                                    <valuemin>1e-05</valuemin>
                                    <valuemax>31.6228</valuemax>
                                </parameter>
                            </effect>
                        </filter>
                        <filter>
                            <enabled>TRUE</enabled>
                            <start>0</start>
                            <end>225</end>
                            <effect>
                                <name>Audio Pan</name>
                                <effectid>audiopan</effectid>
                                <effecttype>audiopan</effecttype>
                                <mediatype>audio</mediatype>
                                <effectcategory>audiopan</effectcategory>
                                <parameter>
                                    <name>Pan</name>
                                    <parameterid>pan</parameterid>
                                    <value>0</value>
                                    <valuemin>-1</valuemin>
                                    <valuemax>1</valuemax>
                                </parameter>
                            </effect>
                        </filter>
                        <comments/>
                    </clipitem>
                    <clipitem id="2024-05-04 19-36-43.mp4 18">
                        <name>2024-05-04 19-36-43.mp4</name>
                        <duration>225</duration>
                        <rate>
                            <timebase>60</timebase>
                            <ntsc>FALSE</ntsc>
                        </rate>
                        <start>442</start>
                        <end>462</end>
                        <enabled>TRUE</enabled>
                        <in>30</in>
                        <out>50</out>
                        <file id="2024-05-04 19-36-43.mp4 1"/>
                        <sourcetrack>
                            <mediatype>audio</mediatype>
                            <trackindex>1</trackindex>
                        </sourcetrack>
                        <filter>
                            <enabled>TRUE</enabled>
                            <start>0</start>
                            <end>225</end>
                            <effect>
                                <name>Audio Levels</name>
                                <effectid>audiolevels</effectid>
                                <effecttype>audiolevels</effecttype>
                                <mediatype>audio</mediatype>
                                <effectcategory>audiolevels</effectcategory>
                                <parameter>
                                    <name>Level</name>
                                    <parameterid>level</parameterid>
                                    <value>0.346737</value>
                                    <valuemin>1e-05</valuemin>
                                    <valuemax>31.6228</valuemax>
                                </parameter>
                            </effect>
                        </filter>
                        <filter>
                            <enabled>TRUE</enabled>
                            <start>0</start>
                            <end>225</end>
                            <effect>
                                <name>Audio Pan</name>
                                <effectid>audiopan</effectid>
                                <effecttype>audiopan</effecttype>
                                <mediatype>audio</mediatype>
                                <effectcategory>audiopan</effectcategory>
                                <parameter>
                                    <name>Pan</name>
                                    <parameterid>pan</parameterid>
                                    <value>0</value>
                                    <valuemin>-1</valuemin>
                                    <valuemax>1</valuemax>
                                </parameter>
                            </effect>
                        </filter>
                        <comments/>
                    </clipitem>
                    <clipitem id="2024-05-04 19-36-43.mp4 19">
                        <name>2024-05-04 19-36-43.mp4</name>
                        <duration>225</duration>
                        <rate>
                            <timebase>60</timebase>
                            <ntsc>FALSE</ntsc>
                        </rate>
                        <start>462</start>
                        <end>490</end>
                        <enabled>TRUE</enabled>
                        <in>122</in>
                        <out>150</out>
                        <file id="2024-05-04 19-36-43.mp4 1"/>
                        <sourcetrack>
                            <mediatype>audio</mediatype>
                            <trackindex>1</trackindex>
                        </sourcetrack>
                        <filter>
                            <enabled>TRUE</enabled>
                            <start>0</start>
                            <end>225</end>
                            <effect>
                                <name>Audio Levels</name>
                                <effectid>audiolevels</effectid>
                                <effecttype>audiolevels</effecttype>
                                <mediatype>audio</mediatype>
                                <effectcategory>audiolevels</effectcategory>
                                <parameter>
                                    <name>Level</name>
                                    <parameterid>level</parameterid>
                                    <value>0.346737</value>
                                    <valuemin>1e-05</valuemin>
                                    <valuemax>31.6228</valuemax>
                                </parameter>
                            </effect>
                        </filter>
                        <filter>
                            <enabled>TRUE</enabled>
                            <start>0</start>
                            <end>225</end>
                            <effect>
                                <name>Audio Pan</name>
                                <effectid>audiopan</effectid>
                                <effecttype>audiopan</effecttype>
                                <mediatype>audio</mediatype>
                                <effectcategory>audiopan</effectcategory>
                                <parameter>
                                    <name>Pan</name>
                                    <parameterid>pan</parameterid>
                                    <value>0</value>
                                    <valuemin>-1</valuemin>
                                    <valuemax>1</valuemax>
                                </parameter>
                            </effect>
                        </filter>
                        <comments/>
                    </clipitem>
                    <clipitem id="2024-05-04 19-36-43.mp4 20">
                        <name>2024-05-04 19-36-43.mp4</name>
                        <duration>225</duration>
                        <rate>
                            <timebase>60</timebase>
                            <ntsc>FALSE</ntsc>
                        </rate>
                        <start>490</start>
                        <end>526</end>
                        <enabled>TRUE</enabled>
                        <in>189</in>
                        <out>225</out>
                        <file id="2024-05-04 19-36-43.mp4 1"/>
                        <sourcetrack>
                            <mediatype>audio</mediatype>
                            <trackindex>1</trackindex>
                        </sourcetrack>
                        <filter>
                            <enabled>TRUE</enabled>
                            <start>0</start>
                            <end>225</end>
                            <effect>
                                <name>Audio Levels</name>
                                <effectid>audiolevels</effectid>
                                <effecttype>audiolevels</effecttype>
                                <mediatype>audio</mediatype>
                                <effectcategory>audiolevels</effectcategory>
                                <parameter>
                                    <name>Level</name>
                                    <parameterid>level</parameterid>
                                    <value>0.346737</value>
                                    <valuemin>1e-05</valuemin>
                                    <valuemax>31.6228</valuemax>
                                </parameter>
                            </effect>
                        </filter>
                        <filter>
                            <enabled>TRUE</enabled>
                            <start>0</start>
                            <end>225</end>
                            <effect>
                                <name>Audio Pan</name>
                                <effectid>audiopan</effectid>
                                <effecttype>audiopan</effecttype>
                                <mediatype>audio</mediatype>
                                <effectcategory>audiopan</effectcategory>
                                <parameter>
                                    <name>Pan</name>
                                    <parameterid>pan</parameterid>
                                    <value>0</value>
                                    <valuemin>-1</valuemin>
                                    <valuemax>1</valuemax>
                                </parameter>
                            </effect>
                        </filter>
                        <comments/>
                    </clipitem>
                    <clipitem id="2024-05-04 19-36-43.mp4 21">
                        <name>2024-05-04 19-36-43.mp4</name>
                        <duration>225</duration>
                        <rate>
                            <timebase>60</timebase>
                            <ntsc>FALSE</ntsc>
                        </rate>
                        <start>526</start>
                        <end>546</end>
                        <enabled>TRUE</enabled>
                        <in>30</in>
                        <out>50</out>
                        <file id="2024-05-04 19-36-43.mp4 1"/>
                        <sourcetrack>
                            <mediatype>audio</mediatype>
                            <trackindex>1</trackindex>
                        </sourcetrack>
                        <filter>
                            <enabled>TRUE</enabled>
                            <start>0</start>
                            <end>225</end>
                            <effect>
                                <name>Audio Levels</name>
                                <effectid>audiolevels</effectid>
                                <effecttype>audiolevels</effecttype>
                                <mediatype>audio</mediatype>
                                <effectcategory>audiolevels</effectcategory>
                                <parameter>
                                    <name>Level</name>
                                    <parameterid>level</parameterid>
                                    <value>0.346737</value>
                                    <valuemin>1e-05</valuemin>
                                    <valuemax>31.6228</valuemax>
                                </parameter>
                            </effect>
                        </filter>
                        <filter>
                            <enabled>TRUE</enabled>
                            <start>0</start>
                            <end>225</end>
                            <effect>
                                <name>Audio Pan</name>
                                <effectid>audiopan</effectid>
                                <effecttype>audiopan</effecttype>
                                <mediatype>audio</mediatype>
                                <effectcategory>audiopan</effectcategory>
                                <parameter>
                                    <name>Pan</name>
                                    <parameterid>pan</parameterid>
                                    <value>0</value>
                                    <valuemin>-1</valuemin>
                                    <valuemax>1</valuemax>
                                </parameter>
                            </effect>
                        </filter>
                        <comments/>
                    </clipitem>
                    <clipitem id="2024-05-04 19-36-43.mp4 22">
                        <name>2024-05-04 19-36-43.mp4</name>
                        <duration>225</duration>
                        <rate>
                            <timebase>60</timebase>
                            <ntsc>FALSE</ntsc>
                        </rate>
                        <start>546</start>
                        <end>574</end>
                        <enabled>TRUE</enabled>
                        <in>122</in>
                        <out>150</out>
                        <file id="2024-05-04 19-36-43.mp4 1"/>
                        <sourcetrack>
                            <mediatype>audio</mediatype>
                            <trackindex>1</trackindex>
                        </sourcetrack>
                        <filter>
                            <enabled>TRUE</enabled>
                            <start>0</start>
                            <end>225</end>
                            <effect>
                                <name>Audio Levels</name>
                                <effectid>audiolevels</effectid>
                                <effecttype>audiolevels</effecttype>
                                <mediatype>audio</mediatype>
                                <effectcategory>audiolevels</effectcategory>
                                <parameter>
                                    <name>Level</name>
                                    <parameterid>level</parameterid>
                                    <value>0.346737</value>
                                    <valuemin>1e-05</valuemin>
                                    <valuemax>31.6228</valuemax>
                                </parameter>
                            </effect>
                        </filter>
                        <filter>
                            <enabled>TRUE</enabled>
                            <start>0</start>
                            <end>225</end>
                            <effect>
                                <name>Audio Pan</name>
                                <effectid>audiopan</effectid>
                                <effecttype>audiopan</effecttype>
                                <mediatype>audio</mediatype>
                                <effectcategory>audiopan</effectcategory>
                                <parameter>
                                    <name>Pan</name>
                                    <parameterid>pan</parameterid>
                                    <value>0</value>
                                    <valuemin>-1</valuemin>
                                    <valuemax>1</valuemax>
                                </parameter>
                            </effect>
                        </filter>
                        <comments/>
                    </clipitem>
                    <clipitem id="2024-05-04 19-36-43.mp4 23">
                        <name>2024-05-04 19-36-43.mp4</name>
                        <duration>225</duration>
                        <rate>
                            <timebase>60</timebase>
                            <ntsc>FALSE</ntsc>
                        </rate>
                        <start>574</start>
                        <end>610</end>
                        <enabled>TRUE</enabled>
                        <in>189</in>
                        <out>225</out>
                        <file id="2024-05-04 19-36-43.mp4 1"/>
                        <sourcetrack>
                            <mediatype>audio</mediatype>
                            <trackindex>1</trackindex>
                        </sourcetrack>
                        <filter>
                            <enabled>TRUE</enabled>
                            <start>0</start>
                            <end>225</end>
                            <effect>
                                <name>Audio Levels</name>
                                <effectid>audiolevels</effectid>
                                <effecttype>audiolevels</effecttype>
                                <mediatype>audio</mediatype>
                                <effectcategory>audiolevels</effectcategory>
                                <parameter>
                                    <name>Level</name>
                                    <parameterid>level</parameterid>
                                    <value>0.346737</value>
                                    <valuemin>1e-05</valuemin>
                                    <valuemax>31.6228</valuemax>
                                </parameter>
                            </effect>
                        </filter>
                        <filter>
                            <enabled>TRUE</enabled>
                            <start>0</start>
                            <end>225</end>
                            <effect>
                                <name>Audio Pan</name>
                                <effectid>audiopan</effectid>
                                <effecttype>audiopan</effecttype>
                                <mediatype>audio</mediatype>
                                <effectcategory>audiopan</effectcategory>
                                <parameter>
                                    <name>Pan</name>
                                    <parameterid>pan</parameterid>
                                    <value>0</value>
                                    <valuemin>-1</valuemin>
                                    <valuemax>1</valuemax>
                                </parameter>
                            </effect>
                        </filter>
                        <comments/>
                    </clipitem>
                    <clipitem id="2024-05-04 19-36-43.mp4 24">
                        <name>2024-05-04 19-36-43.mp4</name>
                        <duration>225</duration>
                        <rate>
                            <timebase>60</timebase>
                            <ntsc>FALSE</ntsc>
                        </rate>
                        <start>610</start>
                        <end>630</end>
                        <enabled>TRUE</enabled>
                        <in>30</in>
                        <out>50</out>
                        <file id="2024-05-04 19-36-43.mp4 1"/>
                        <sourcetrack>
                            <mediatype>audio</mediatype>
                            <trackindex>1</trackindex>
                        </sourcetrack>
                        <filter>
                            <enabled>TRUE</enabled>
                            <start>0</start>
                            <end>225</end>
                            <effect>
                                <name>Audio Levels</name>
                                <effectid>audiolevels</effectid>
                                <effecttype>audiolevels</effecttype>
                                <mediatype>audio</mediatype>
                                <effectcategory>audiolevels</effectcategory>
                                <parameter>
                                    <name>Level</name>
                                    <parameterid>level</parameterid>
                                    <value>0.346737</value>
                                    <valuemin>1e-05</valuemin>
                                    <valuemax>31.6228</valuemax>
                                </parameter>
                            </effect>
                        </filter>
                        <filter>
                            <enabled>TRUE</enabled>
                            <start>0</start>
                            <end>225</end>
                            <effect>
                                <name>Audio Pan</name>
                                <effectid>audiopan</effectid>
                                <effecttype>audiopan</effecttype>
                                <mediatype>audio</mediatype>
                                <effectcategory>audiopan</effectcategory>
                                <parameter>
                                    <name>Pan</name>
                                    <parameterid>pan</parameterid>
                                    <value>0</value>
                                    <valuemin>-1</valuemin>
                                    <valuemax>1</valuemax>
                                </parameter>
                            </effect>
                        </filter>
                        <comments/>
                    </clipitem>
                    <clipitem id="2024-05-04 19-36-43.mp4 25">
                        <name>2024-05-04 19-36-43.mp4</name>
                        <duration>225</duration>
                        <rate>
                            <timebase>60</timebase>
                            <ntsc>FALSE</ntsc>
                        </rate>
                        <start>630</start>
                        <end>658</end>
                        <enabled>TRUE</enabled>
                        <in>122</in>
                        <out>150</out>
                        <file id="2024-05-04 19-36-43.mp4 1"/>
                        <sourcetrack>
                            <mediatype>audio</mediatype>
                            <trackindex>1</trackindex>
                        </sourcetrack>
                        <filter>
                            <enabled>TRUE</enabled>
                            <start>0</start>
                            <end>225</end>
                            <effect>
                                <name>Audio Levels</name>
                                <effectid>audiolevels</effectid>
                                <effecttype>audiolevels</effecttype>
                                <mediatype>audio</mediatype>
                                <effectcategory>audiolevels</effectcategory>
                                <parameter>
                                    <name>Level</name>
                                    <parameterid>level</parameterid>
                                    <value>0.346737</value>
                                    <valuemin>1e-05</valuemin>
                                    <valuemax>31.6228</valuemax>
                                </parameter>
                            </effect>
                        </filter>
                        <filter>
                            <enabled>TRUE</enabled>
                            <start>0</start>
                            <end>225</end>
                            <effect>
                                <name>Audio Pan</name>
                                <effectid>audiopan</effectid>
                                <effecttype>audiopan</effecttype>
                                <mediatype>audio</mediatype>
                                <effectcategory>audiopan</effectcategory>
                                <parameter>
                                    <name>Pan</name>
                                    <parameterid>pan</parameterid>
                                    <value>0</value>
                                    <valuemin>-1</valuemin>
                                    <valuemax>1</valuemax>
                                </parameter>
                            </effect>
                        </filter>
                        <comments/>
                    </clipitem>
                    <clipitem id="2024-05-04 19-36-43.mp4 26">
                        <name>2024-05-04 19-36-43.mp4</name>
                        <duration>225</duration>
                        <rate>
                            <timebase>60</timebase>
                            <ntsc>FALSE</ntsc>
                        </rate>
                        <start>658</start>
                        <end>694</end>
                        <enabled>TRUE</enabled>
                        <in>189</in>
                        <out>225</out>
                        <file id="2024-05-04 19-36-43.mp4 1"/>
                        <sourcetrack>
                            <mediatype>audio</mediatype>
                            <trackindex>1</trackindex>
                        </sourcetrack>
                        <filter>
                            <enabled>TRUE</enabled>
                            <start>0</start>
                            <end>225</end>
                            <effect>
                                <name>Audio Levels</name>
                                <effectid>audiolevels</effectid>
                                <effecttype>audiolevels</effecttype>
                                <mediatype>audio</mediatype>
                                <effectcategory>audiolevels</effectcategory>
                                <parameter>
                                    <name>Level</name>
                                    <parameterid>level</parameterid>
                                    <value>0.346737</value>
                                    <valuemin>1e-05</valuemin>
                                    <valuemax>31.6228</valuemax>
                                </parameter>
                            </effect>
                        </filter>
                        <filter>
                            <enabled>TRUE</enabled>
                            <start>0</start>
                            <end>225</end>
                            <effect>
                                <name>Audio Pan</name>
                                <effectid>audiopan</effectid>
                                <effecttype>audiopan</effecttype>
                                <mediatype>audio</mediatype>
                                <effectcategory>audiopan</effectcategory>
                                <parameter>
                                    <name>Pan</name>
                                    <parameterid>pan</parameterid>
                                    <value>0</value>
                                    <valuemin>-1</valuemin>
                                    <valuemax>1</valuemax>
                                </parameter>
                            </effect>
                        </filter>
                        <comments/>
                    </clipitem>
                    <clipitem id="2024-05-04 19-36-43.mp4 27">
                        <name>2024-05-04 19-36-43.mp4</name>
                        <duration>225</duration>
                        <rate>
                            <timebase>60</timebase>
                            <ntsc>FALSE</ntsc>
                        </rate>
                        <start>694</start>
                        <end>714</end>
                        <enabled>TRUE</enabled>
                        <in>30</in>
                        <out>50</out>
                        <file id="2024-05-04 19-36-43.mp4 1"/>
                        <sourcetrack>
                            <mediatype>audio</mediatype>
                            <trackindex>1</trackindex>
                        </sourcetrack>
                        <filter>
                            <enabled>TRUE</enabled>
                            <start>0</start>
                            <end>225</end>
                            <effect>
                                <name>Audio Levels</name>
                                <effectid>audiolevels</effectid>
                                <effecttype>audiolevels</effecttype>
                                <mediatype>audio</mediatype>
                                <effectcategory>audiolevels</effectcategory>
                                <parameter>
                                    <name>Level</name>
                                    <parameterid>level</parameterid>
                                    <value>0.346737</value>
                                    <valuemin>1e-05</valuemin>
                                    <valuemax>31.6228</valuemax>
                                </parameter>
                            </effect>
                        </filter>
                        <filter>
                            <enabled>TRUE</enabled>
                            <start>0</start>
                            <end>225</end>
                            <effect>
                                <name>Audio Pan</name>
                                <effectid>audiopan</effectid>
                                <effecttype>audiopan</effecttype>
                                <mediatype>audio</mediatype>
                                <effectcategory>audiopan</effectcategory>
                                <parameter>
                                    <name>Pan</name>
                                    <parameterid>pan</parameterid>
                                    <value>0</value>
                                    <valuemin>-1</valuemin>
                                    <valuemax>1</valuemax>
                                </parameter>
                            </effect>
                        </filter>
                        <comments/>
                    </clipitem>
                    <clipitem id="2024-05-04 19-36-43.mp4 28">
                        <name>2024-05-04 19-36-43.mp4</name>
                        <duration>225</duration>
                        <rate>
                            <timebase>60</timebase>
                            <ntsc>FALSE</ntsc>
                        </rate>
                        <start>714</start>
                        <end>742</end>
                        <enabled>TRUE</enabled>
                        <in>122</in>
                        <out>150</out>
                        <file id="2024-05-04 19-36-43.mp4 1"/>
                        <sourcetrack>
                            <mediatype>audio</mediatype>
                            <trackindex>1</trackindex>
                        </sourcetrack>
                        <filter>
                            <enabled>TRUE</enabled>
                            <start>0</start>
                            <end>225</end>
                            <effect>
                                <name>Audio Levels</name>
                                <effectid>audiolevels</effectid>
                                <effecttype>audiolevels</effecttype>
                                <mediatype>audio</mediatype>
                                <effectcategory>audiolevels</effectcategory>
                                <parameter>
                                    <name>Level</name>
                                    <parameterid>level</parameterid>
                                    <value>0.346737</value>
                                    <valuemin>1e-05</valuemin>
                                    <valuemax>31.6228</valuemax>
                                </parameter>
                            </effect>
                        </filter>
                        <filter>
                            <enabled>TRUE</enabled>
                            <start>0</start>
                            <end>225</end>
                            <effect>
                                <name>Audio Pan</name>
                                <effectid>audiopan</effectid>
                                <effecttype>audiopan</effecttype>
                                <mediatype>audio</mediatype>
                                <effectcategory>audiopan</effectcategory>
                                <parameter>
                                    <name>Pan</name>
                                    <parameterid>pan</parameterid>
                                    <value>0</value>
                                    <valuemin>-1</valuemin>
                                    <valuemax>1</valuemax>
                                </parameter>
                            </effect>
                        </filter>
                        <comments/>
                    </clipitem>
                    <clipitem id="2024-05-04 19-36-43.mp4 29">
                        <name>2024-05-04 19-36-43.mp4</name>
                        <duration>225</duration>
                        <rate>
                            <timebase>60</timebase>
                            <ntsc>FALSE</ntsc>
                        </rate>
                        <start>742</start>
                        <end>778</end>
                        <enabled>TRUE</enabled>
                        <in>189</in>
                        <out>225</out>
                        <file id="2024-05-04 19-36-43.mp4 1"/>
                        <sourcetrack>
                            <mediatype>audio</mediatype>
                            <trackindex>1</trackindex>
                        </sourcetrack>
                        <filter>
                            <enabled>TRUE</enabled>
                            <start>0</start>
                            <end>225</end>
                            <effect>
                                <name>Audio Levels</name>
                                <effectid>audiolevels</effectid>
                                <effecttype>audiolevels</effecttype>
                                <mediatype>audio</mediatype>
                                <effectcategory>audiolevels</effectcategory>
                                <parameter>
                                    <name>Level</name>
                                    <parameterid>level</parameterid>
                                    <value>0.346737</value>
                                    <valuemin>1e-05</valuemin>
                                    <valuemax>31.6228</valuemax>
                                </parameter>
                            </effect>
                        </filter>
                        <filter>
                            <enabled>TRUE</enabled>
                            <start>0</start>
                            <end>225</end>
                            <effect>
                                <name>Audio Pan</name>
                                <effectid>audiopan</effectid>
                                <effecttype>audiopan</effecttype>
                                <mediatype>audio</mediatype>
                                <effectcategory>audiopan</effectcategory>
                                <parameter>
                                    <name>Pan</name>
                                    <parameterid>pan</parameterid>
                                    <value>0</value>
                                    <valuemin>-1</valuemin>
                                    <valuemax>1</valuemax>
                                </parameter>
                            </effect>
                        </filter>
                        <comments/>
                    </clipitem>
                    <clipitem id="2024-05-04 19-36-43.mp4 30">
                        <name>2024-05-04 19-36-43.mp4</name>
                        <duration>225</duration>
                        <rate>
                            <timebase>60</timebase>
                            <ntsc>FALSE</ntsc>
                        </rate>
                        <start>778</start>
                        <end>798</end>
                        <enabled>TRUE</enabled>
                        <in>30</in>
                        <out>50</out>
                        <file id="2024-05-04 19-36-43.mp4 1"/>
                        <sourcetrack>
                            <mediatype>audio</mediatype>
                            <trackindex>1</trackindex>
                        </sourcetrack>
                        <filter>
                            <enabled>TRUE</enabled>
                            <start>0</start>
                            <end>225</end>
                            <effect>
                                <name>Audio Levels</name>
                                <effectid>audiolevels</effectid>
                                <effecttype>audiolevels</effecttype>
                                <mediatype>audio</mediatype>
                                <effectcategory>audiolevels</effectcategory>
                                <parameter>
                                    <name>Level</name>
                                    <parameterid>level</parameterid>
                                    <value>0.346737</value>
                                    <valuemin>1e-05</valuemin>
                                    <valuemax>31.6228</valuemax>
                                </parameter>
                            </effect>
                        </filter>
                        <filter>
                            <enabled>TRUE</enabled>
                            <start>0</start>
                            <end>225</end>
                            <effect>
                                <name>Audio Pan</name>
                                <effectid>audiopan</effectid>
                                <effecttype>audiopan</effecttype>
                                <mediatype>audio</mediatype>
                                <effectcategory>audiopan</effectcategory>
                                <parameter>
                                    <name>Pan</name>
                                    <parameterid>pan</parameterid>
                                    <value>0</value>
                                    <valuemin>-1</valuemin>
                                    <valuemax>1</valuemax>
                                </parameter>
                            </effect>
                        </filter>
                        <comments/>
                    </clipitem>
                    <clipitem id="2024-05-04 19-36-43.mp4 31">
                        <name>2024-05-04 19-36-43.mp4</name>
                        <duration>225</duration>
                        <rate>
                            <timebase>60</timebase>
                            <ntsc>FALSE</ntsc>
                        </rate>
                        <start>798</start>
                        <end>826</end>
                        <enabled>TRUE</enabled>
                        <in>122</in>
                        <out>150</out>
                        <file id="2024-05-04 19-36-43.mp4 1"/>
                        <sourcetrack>
                            <mediatype>audio</mediatype>
                            <trackindex>1</trackindex>
                        </sourcetrack>
                        <filter>
                            <enabled>TRUE</enabled>
                            <start>0</start>
                            <end>225</end>
                            <effect>
                                <name>Audio Levels</name>
                                <effectid>audiolevels</effectid>
                                <effecttype>audiolevels</effecttype>
                                <mediatype>audio</mediatype>
                                <effectcategory>audiolevels</effectcategory>
                                <parameter>
                                    <name>Level</name>
                                    <parameterid>level</parameterid>
                                    <value>0.346737</value>
                                    <valuemin>1e-05</valuemin>
                                    <valuemax>31.6228</valuemax>
                                </parameter>
                            </effect>
                        </filter>
                        <filter>
                            <enabled>TRUE</enabled>
                            <start>0</start>
                            <end>225</end>
                            <effect>
                                <name>Audio Pan</name>
                                <effectid>audiopan</effectid>
                                <effecttype>audiopan</effecttype>
                                <mediatype>audio</mediatype>
                                <effectcategory>audiopan</effectcategory>
                                <parameter>
                                    <name>Pan</name>
                                    <parameterid>pan</parameterid>
                                    <value>0</value>
                                    <valuemin>-1</valuemin>
                                    <valuemax>1</valuemax>
                                </parameter>
                            </effect>
                        </filter>
                        <comments/>
                    </clipitem>
                    <clipitem id="2024-05-04 19-36-43.mp4 32">
                        <name>2024-05-04 19-36-43.mp4</name>
                        <duration>225</duration>
                        <rate>
                            <timebase>60</timebase>
                            <ntsc>FALSE</ntsc>
                        </rate>
                        <start>826</start>
                        <end>862</end>
                        <enabled>TRUE</enabled>
                        <in>189</in>
                        <out>225</out>
                        <file id="2024-05-04 19-36-43.mp4 1"/>
                        <sourcetrack>
                            <mediatype>audio</mediatype>
                            <trackindex>1</trackindex>
                        </sourcetrack>
                        <filter>
                            <enabled>TRUE</enabled>
                            <start>0</start>
                            <end>225</end>
                            <effect>
                                <name>Audio Levels</name>
                                <effectid>audiolevels</effectid>
                                <effecttype>audiolevels</effecttype>
                                <mediatype>audio</mediatype>
                                <effectcategory>audiolevels</effectcategory>
                                <parameter>
                                    <name>Level</name>
                                    <parameterid>level</parameterid>
                                    <value>0.346737</value>
                                    <valuemin>1e-05</valuemin>
                                    <valuemax>31.6228</valuemax>
                                </parameter>
                            </effect>
                        </filter>
                        <filter>
                            <enabled>TRUE</enabled>
                            <start>0</start>
                            <end>225</end>
                            <effect>
                                <name>Audio Pan</name>
                                <effectid>audiopan</effectid>
                                <effecttype>audiopan</effecttype>
                                <mediatype>audio</mediatype>
                                <effectcategory>audiopan</effectcategory>
                                <parameter>
                                    <name>Pan</name>
                                    <parameterid>pan</parameterid>
                                    <value>0</value>
                                    <valuemin>-1</valuemin>
                                    <valuemax>1</valuemax>
                                </parameter>
                            </effect>
                        </filter>
                        <comments/>
                    </clipitem>
                    <clipitem id="2024-05-04 19-36-43.mp4 33">
                        <name>2024-05-04 19-36-43.mp4</name>
                        <duration>225</duration>
                        <rate>
                            <timebase>60</timebase>
                            <ntsc>FALSE</ntsc>
                        </rate>
                        <start>862</start>
                        <end>882</end>
                        <enabled>TRUE</enabled>
                        <in>30</in>
                        <out>50</out>
                        <file id="2024-05-04 19-36-43.mp4 1"/>
                        <sourcetrack>
                            <mediatype>audio</mediatype>
                            <trackindex>1</trackindex>
                        </sourcetrack>
                        <filter>
                            <enabled>TRUE</enabled>
                            <start>0</start>
                            <end>225</end>
                            <effect>
                                <name>Audio Levels</name>
                                <effectid>audiolevels</effectid>
                                <effecttype>audiolevels</effecttype>
                                <mediatype>audio</mediatype>
                                <effectcategory>audiolevels</effectcategory>
                                <parameter>
                                    <name>Level</name>
                                    <parameterid>level</parameterid>
                                    <value>0.346737</value>
                                    <valuemin>1e-05</valuemin>
                                    <valuemax>31.6228</valuemax>
                                </parameter>
                            </effect>
                        </filter>
                        <filter>
                            <enabled>TRUE</enabled>
                            <start>0</start>
                            <end>225</end>
                            <effect>
                                <name>Audio Pan</name>
                                <effectid>audiopan</effectid>
                                <effecttype>audiopan</effecttype>
                                <mediatype>audio</mediatype>
                                <effectcategory>audiopan</effectcategory>
                                <parameter>
                                    <name>Pan</name>
                                    <parameterid>pan</parameterid>
                                    <value>0</value>
                                    <valuemin>-1</valuemin>
                                    <valuemax>1</valuemax>
                                </parameter>
                            </effect>
                        </filter>
                        <comments/>
                    </clipitem>
                    <clipitem id="2024-05-04 19-36-43.mp4 34">
                        <name>2024-05-04 19-36-43.mp4</name>
                        <duration>225</duration>
                        <rate>
                            <timebase>60</timebase>
                            <ntsc>FALSE</ntsc>
                        </rate>
                        <start>882</start>
                        <end>910</end>
                        <enabled>TRUE</enabled>
                        <in>122</in>
                        <out>150</out>
                        <file id="2024-05-04 19-36-43.mp4 1"/>
                        <sourcetrack>
                            <mediatype>audio</mediatype>
                            <trackindex>1</trackindex>
                        </sourcetrack>
                        <filter>
                            <enabled>TRUE</enabled>
                            <start>0</start>
                            <end>225</end>
                            <effect>
                                <name>Audio Levels</name>
                                <effectid>audiolevels</effectid>
                                <effecttype>audiolevels</effecttype>
                                <mediatype>audio</mediatype>
                                <effectcategory>audiolevels</effectcategory>
                                <parameter>
                                    <name>Level</name>
                                    <parameterid>level</parameterid>
                                    <value>0.346737</value>
                                    <valuemin>1e-05</valuemin>
                                    <valuemax>31.6228</valuemax>
                                </parameter>
                            </effect>
                        </filter>
                        <filter>
                            <enabled>TRUE</enabled>
                            <start>0</start>
                            <end>225</end>
                            <effect>
                                <name>Audio Pan</name>
                                <effectid>audiopan</effectid>
                                <effecttype>audiopan</effecttype>
                                <mediatype>audio</mediatype>
                                <effectcategory>audiopan</effectcategory>
                                <parameter>
                                    <name>Pan</name>
                                    <parameterid>pan</parameterid>
                                    <value>0</value>
                                    <valuemin>-1</valuemin>
                                    <valuemax>1</valuemax>
                                </parameter>
                            </effect>
                        </filter>
                        <comments/>
                    </clipitem>
                    <clipitem id="2024-05-04 19-36-43.mp4 35">
                        <name>2024-05-04 19-36-43.mp4</name>
                        <duration>225</duration>
                        <rate>
                            <timebase>60</timebase>
                            <ntsc>FALSE</ntsc>
                        </rate>
                        <start>910</start>
                        <end>946</end>
                        <enabled>TRUE</enabled>
                        <in>189</in>
                        <out>225</out>
                        <file id="2024-05-04 19-36-43.mp4 1"/>
                        <sourcetrack>
                            <mediatype>audio</mediatype>
                            <trackindex>1</trackindex>
                        </sourcetrack>
                        <filter>
                            <enabled>TRUE</enabled>
                            <start>0</start>
                            <end>225</end>
                            <effect>
                                <name>Audio Levels</name>
                                <effectid>audiolevels</effectid>
                                <effecttype>audiolevels</effecttype>
                                <mediatype>audio</mediatype>
                                <effectcategory>audiolevels</effectcategory>
                                <parameter>
                                    <name>Level</name>
                                    <parameterid>level</parameterid>
                                    <value>0.346737</value>
                                    <valuemin>1e-05</valuemin>
                                    <valuemax>31.6228</valuemax>
                                </parameter>
                            </effect>
                        </filter>
                        <filter>
                            <enabled>TRUE</enabled>
                            <start>0</start>
                            <end>225</end>
                            <effect>
                                <name>Audio Pan</name>
                                <effectid>audiopan</effectid>
                                <effecttype>audiopan</effecttype>
                                <mediatype>audio</mediatype>
                                <effectcategory>audiopan</effectcategory>
                                <parameter>
                                    <name>Pan</name>
                                    <parameterid>pan</parameterid>
                                    <value>0</value>
                                    <valuemin>-1</valuemin>
                                    <valuemax>1</valuemax>
                                </parameter>
                            </effect>
                        </filter>
                        <comments/>
                    </clipitem>
                    <clipitem id="2024-05-04 19-36-43.mp4 36">
                        <name>2024-05-04 19-36-43.mp4</name>
                        <duration>225</duration>
                        <rate>
                            <timebase>60</timebase>
                            <ntsc>FALSE</ntsc>
                        </rate>
                        <start>946</start>
                        <end>966</end>
                        <enabled>TRUE</enabled>
                        <in>30</in>
                        <out>50</out>
                        <file id="2024-05-04 19-36-43.mp4 1"/>
                        <sourcetrack>
                            <mediatype>audio</mediatype>
                            <trackindex>1</trackindex>
                        </sourcetrack>
                        <filter>
                            <enabled>TRUE</enabled>
                            <start>0</start>
                            <end>225</end>
                            <effect>
                                <name>Audio Levels</name>
                                <effectid>audiolevels</effectid>
                                <effecttype>audiolevels</effecttype>
                                <mediatype>audio</mediatype>
                                <effectcategory>audiolevels</effectcategory>
                                <parameter>
                                    <name>Level</name>
                                    <parameterid>level</parameterid>
                                    <value>0.346737</value>
                                    <valuemin>1e-05</valuemin>
                                    <valuemax>31.6228</valuemax>
                                </parameter>
                            </effect>
                        </filter>
                        <filter>
                            <enabled>TRUE</enabled>
                            <start>0</start>
                            <end>225</end>
                            <effect>
                                <name>Audio Pan</name>
                                <effectid>audiopan</effectid>
                                <effecttype>audiopan</effecttype>
                                <mediatype>audio</mediatype>
                                <effectcategory>audiopan</effectcategory>
                                <parameter>
                                    <name>Pan</name>
                                    <parameterid>pan</parameterid>
                                    <value>0</value>
                                    <valuemin>-1</valuemin>
                                    <valuemax>1</valuemax>
                                </parameter>
                            </effect>
                        </filter>
                        <comments/>
                    </clipitem>
                    <clipitem id="2024-05-04 19-36-43.mp4 37">
                        <name>2024-05-04 19-36-43.mp4</name>
                        <duration>225</duration>
                        <rate>
                            <timebase>60</timebase>
                            <ntsc>FALSE</ntsc>
                        </rate>
                        <start>966</start>
                        <end>994</end>
                        <enabled>TRUE</enabled>
                        <in>122</in>
                        <out>150</out>
                        <file id="2024-05-04 19-36-43.mp4 1"/>
                        <sourcetrack>
                            <mediatype>audio</mediatype>
                            <trackindex>1</trackindex>
                        </sourcetrack>
                        <filter>
                            <enabled>TRUE</enabled>
                            <start>0</start>
                            <end>225</end>
                            <effect>
                                <name>Audio Levels</name>
                                <effectid>audiolevels</effectid>
                                <effecttype>audiolevels</effecttype>
                                <mediatype>audio</mediatype>
                                <effectcategory>audiolevels</effectcategory>
                                <parameter>
                                    <name>Level</name>
                                    <parameterid>level</parameterid>
                                    <value>0.346737</value>
                                    <valuemin>1e-05</valuemin>
                                    <valuemax>31.6228</valuemax>
                                </parameter>
                            </effect>
                        </filter>
                        <filter>
                            <enabled>TRUE</enabled>
                            <start>0</start>
                            <end>225</end>
                            <effect>
                                <name>Audio Pan</name>
                                <effectid>audiopan</effectid>
                                <effecttype>audiopan</effecttype>
                                <mediatype>audio</mediatype>
                                <effectcategory>audiopan</effectcategory>
                                <parameter>
                                    <name>Pan</name>
                                    <parameterid>pan</parameterid>
                                    <value>0</value>
                                    <valuemin>-1</valuemin>
                                    <valuemax>1</valuemax>
                                </parameter>
                            </effect>
                        </filter>
                        <comments/>
                    </clipitem>
                    <clipitem id="2024-05-04 19-36-43.mp4 38">
                        <name>2024-05-04 19-36-43.mp4</name>
                        <duration>225</duration>
                        <rate>
                            <timebase>60</timebase>
                            <ntsc>FALSE</ntsc>
                        </rate>
                        <start>994</start>
                        <end>1030</end>
                        <enabled>TRUE</enabled>
                        <in>189</in>
                        <out>225</out>
                        <file id="2024-05-04 19-36-43.mp4 1"/>
                        <sourcetrack>
                            <mediatype>audio</mediatype>
                            <trackindex>1</trackindex>
                        </sourcetrack>
                        <filter>
                            <enabled>TRUE</enabled>
                            <start>0</start>
                            <end>225</end>
                            <effect>
                                <name>Audio Levels</name>
                                <effectid>audiolevels</effectid>
                                <effecttype>audiolevels</effecttype>
                                <mediatype>audio</mediatype>
                                <effectcategory>audiolevels</effectcategory>
                                <parameter>
                                    <name>Level</name>
                                    <parameterid>level</parameterid>
                                    <value>0.346737</value>
                                    <valuemin>1e-05</valuemin>
                                    <valuemax>31.6228</valuemax>
                                </parameter>
                            </effect>
                        </filter>
                        <filter>
                            <enabled>TRUE</enabled>
                            <start>0</start>
                            <end>225</end>
                            <effect>
                                <name>Audio Pan</name>
                                <effectid>audiopan</effectid>
                                <effecttype>audiopan</effecttype>
                                <mediatype>audio</mediatype>
                                <effectcategory>audiopan</effectcategory>
                                <parameter>
                                    <name>Pan</name>
                                    <parameterid>pan</parameterid>
                                    <value>0</value>
                                    <valuemin>-1</valuemin>
                                    <valuemax>1</valuemax>
                                </parameter>
                            </effect>
                        </filter>
                        <comments/>
                    </clipitem>
                    <clipitem id="2024-05-04 19-36-43.mp4 39">
                        <name>2024-05-04 19-36-43.mp4</name>
                        <duration>225</duration>
                        <rate>
                            <timebase>60</timebase>
                            <ntsc>FALSE</ntsc>
                        </rate>
                        <start>1030</start>
                        <end>1050</end>
                        <enabled>TRUE</enabled>
                        <in>30</in>
                        <out>50</out>
                        <file id="2024-05-04 19-36-43.mp4 1"/>
                        <sourcetrack>
                            <mediatype>audio</mediatype>
                            <trackindex>1</trackindex>
                        </sourcetrack>
                        <filter>
                            <enabled>TRUE</enabled>
                            <start>0</start>
                            <end>225</end>
                            <effect>
                                <name>Audio Levels</name>
                                <effectid>audiolevels</effectid>
                                <effecttype>audiolevels</effecttype>
                                <mediatype>audio</mediatype>
                                <effectcategory>audiolevels</effectcategory>
                                <parameter>
                                    <name>Level</name>
                                    <parameterid>level</parameterid>
                                    <value>0.346737</value>
                                    <valuemin>1e-05</valuemin>
                                    <valuemax>31.6228</valuemax>
                                </parameter>
                            </effect>
                        </filter>
                        <filter>
                            <enabled>TRUE</enabled>
                            <start>0</start>
                            <end>225</end>
                            <effect>
                                <name>Audio Pan</name>
                                <effectid>audiopan</effectid>
                                <effecttype>audiopan</effecttype>
                                <mediatype>audio</mediatype>
                                <effectcategory>audiopan</effectcategory>
                                <parameter>
                                    <name>Pan</name>
                                    <parameterid>pan</parameterid>
                                    <value>0</value>
                                    <valuemin>-1</valuemin>
                                    <valuemax>1</valuemax>
                                </parameter>
                            </effect>
                        </filter>
                        <comments/>
                    </clipitem>
                    <clipitem id="2024-05-04 19-36-43.mp4 40">
                        <name>2024-05-04 19-36-43.mp4</name>
                        <duration>225</duration>
                        <rate>
                            <timebase>60</timebase>
                            <ntsc>FALSE</ntsc>
                        </rate>
                        <start>1050</start>
                        <end>1078</end>
                        <enabled>TRUE</enabled>
                        <in>122</in>
                        <out>150</out>
                        <file id="2024-05-04 19-36-43.mp4 1"/>
                        <sourcetrack>
                            <mediatype>audio</mediatype>
                            <trackindex>1</trackindex>
                        </sourcetrack>
                        <filter>
                            <enabled>TRUE</enabled>
                            <start>0</start>
                            <end>225</end>
                            <effect>
                                <name>Audio Levels</name>
                                <effectid>audiolevels</effectid>
                                <effecttype>audiolevels</effecttype>
                                <mediatype>audio</mediatype>
                                <effectcategory>audiolevels</effectcategory>
                                <parameter>
                                    <name>Level</name>
                                    <parameterid>level</parameterid>
                                    <value>0.346737</value>
                                    <valuemin>1e-05</valuemin>
                                    <valuemax>31.6228</valuemax>
                                </parameter>
                            </effect>
                        </filter>
                        <filter>
                            <enabled>TRUE</enabled>
                            <start>0</start>
                            <end>225</end>
                            <effect>
                                <name>Audio Pan</name>
                                <effectid>audiopan</effectid>
                                <effecttype>audiopan</effecttype>
                                <mediatype>audio</mediatype>
                                <effectcategory>audiopan</effectcategory>
                                <parameter>
                                    <name>Pan</name>
                                    <parameterid>pan</parameterid>
                                    <value>0</value>
                                    <valuemin>-1</valuemin>
                                    <valuemax>1</valuemax>
                                </parameter>
                            </effect>
                        </filter>
                        <comments/>
                    </clipitem>
                    <clipitem id="2024-05-04 19-36-43.mp4 41">
                        <name>2024-05-04 19-36-43.mp4</name>
                        <duration>225</duration>
                        <rate>
                            <timebase>60</timebase>
                            <ntsc>FALSE</ntsc>
                        </rate>
                        <start>1078</start>
                        <end>1083</end>
                        <enabled>TRUE</enabled>
                        <in>189</in>
                        <out>194</out>
                        <file id="2024-05-04 19-36-43.mp4 1"/>
                        <sourcetrack>
                            <mediatype>audio</mediatype>
                            <trackindex>1</trackindex>
                        </sourcetrack>
                        <filter>
                            <enabled>TRUE</enabled>
                            <start>0</start>
                            <end>225</end>
                            <effect>
                                <name>Audio Levels</name>
                                <effectid>audiolevels</effectid>
                                <effecttype>audiolevels</effecttype>
                                <mediatype>audio</mediatype>
                                <effectcategory>audiolevels</effectcategory>
                                <parameter>
                                    <name>Level</name>
                                    <parameterid>level</parameterid>
                                    <value>0.346737</value>
                                    <valuemin>1e-05</valuemin>
                                    <valuemax>31.6228</valuemax>
                                </parameter>
                            </effect>
                        </filter>
                        <filter>
                            <enabled>TRUE</enabled>
                            <start>0</start>
                            <end>225</end>
                            <effect>
                                <name>Audio Pan</name>
                                <effectid>audiopan</effectid>
                                <effecttype>audiopan</effecttype>
                                <mediatype>audio</mediatype>
                                <effectcategory>audiopan</effectcategory>
                                <parameter>
                                    <name>Pan</name>
                                    <parameterid>pan</parameterid>
                                    <value>0</value>
                                    <valuemin>-1</valuemin>
                                    <valuemax>1</valuemax>
                                </parameter>
                            </effect>
                        </filter>
                        <comments/>
                    </clipitem>
                    <enabled>TRUE</enabled>
                    <locked>FALSE</locked>
                </track>
                <track>
                    <clipitem id="2024-05-04 19-36-43.mp4 42">
                        <name>2024-05-04 19-36-43.mp4</name>
                        <duration>225</duration>
                        <rate>
                            <timebase>60</timebase>
                            <ntsc>FALSE</ntsc>
                        </rate>
                        <start>0</start>
                        <end>225</end>
                        <enabled>TRUE</enabled>
                        <in>0</in>
                        <out>225</out>
                        <file id="2024-05-04 19-36-43.mp4 1"/>
                        <sourcetrack>
                            <mediatype>audio</mediatype>
                            <trackindex>1</trackindex>
                        </sourcetrack>
                        <filter>
                            <enabled>TRUE</enabled>
                            <start>0</start>
                            <end>225</end>
                            <effect>
                                <name>Audio Levels</name>
                                <effectid>audiolevels</effectid>
                                <effecttype>audiolevels</effecttype>
                                <mediatype>audio</mediatype>
                                <effectcategory>audiolevels</effectcategory>
                                <parameter>
                                    <name>Level</name>
                                    <parameterid>level</parameterid>
                                    <value>1</value>
                                    <valuemin>1e-05</valuemin>
                                    <valuemax>31.6228</valuemax>
                                </parameter>
                            </effect>
                        </filter>
                        <filter>
                            <enabled>TRUE</enabled>
                            <start>0</start>
                            <end>225</end>
                            <effect>
                                <name>Audio Pan</name>
                                <effectid>audiopan</effectid>
                                <effecttype>audiopan</effecttype>
                                <mediatype>audio</mediatype>
                                <effectcategory>audiopan</effectcategory>
                                <parameter>
                                    <name>Pan</name>
                                    <parameterid>pan</parameterid>
                                    <value>0</value>
                                    <valuemin>-1</valuemin>
                                    <valuemax>1</valuemax>
                                </parameter>
                            </effect>
                        </filter>
                        <comments/>
                    </clipitem>
                    <clipitem id="2024-05-04 19-36-43.mp4 43">
                        <name>2024-05-04 19-36-43.mp4</name>
                        <duration>225</duration>
                        <rate>
                            <timebase>60</timebase>
                            <ntsc>FALSE</ntsc>
                        </rate>
                        <start>225</start>
                        <end>450</end>
                        <enabled>TRUE</enabled>
                        <in>0</in>
                        <out>225</out>
                        <file id="2024-05-04 19-36-43.mp4 1"/>
                        <sourcetrack>
                            <mediatype>audio</mediatype>
                            <trackindex>1</trackindex>
                        </sourcetrack>
                        <filter>
                            <enabled>TRUE</enabled>
                            <start>0</start>
                            <end>225</end>
                            <effect>
                                <name>Audio Levels</name>
                                <effectid>audiolevels</effectid>
                                <effecttype>audiolevels</effecttype>
                                <mediatype>audio</mediatype>
                                <effectcategory>audiolevels</effectcategory>
                                <parameter>
                                    <name>Level</name>
                                    <parameterid>level</parameterid>
                                    <value>1</value>
                                    <valuemin>1e-05</valuemin>
                                    <valuemax>31.6228</valuemax>
                                </parameter>
                            </effect>
                        </filter>
                        <filter>
                            <enabled>TRUE</enabled>
                            <start>0</start>
                            <end>225</end>
                            <effect>
                                <name>Audio Pan</name>
                                <effectid>audiopan</effectid>
                                <effecttype>audiopan</effecttype>
                                <mediatype>audio</mediatype>
                                <effectcategory>audiopan</effectcategory>
                                <parameter>
                                    <name>Pan</name>
                                    <parameterid>pan</parameterid>
                                    <value>0</value>
                                    <valuemin>-1</valuemin>
                                    <valuemax>1</valuemax>
                                </parameter>
                            </effect>
                        </filter>
                        <comments/>
                    </clipitem>
                    <clipitem id="2024-05-04 19-36-43.mp4 44">
                        <name>2024-05-04 19-36-43.mp4</name>
                        <duration>225</duration>
                        <rate>
                            <timebase>60</timebase>
                            <ntsc>FALSE</ntsc>
                        </rate>
                        <start>450</start>
                        <end>675</end>
                        <enabled>TRUE</enabled>
                        <in>0</in>
                        <out>225</out>
                        <file id="2024-05-04 19-36-43.mp4 1"/>
                        <sourcetrack>
                            <mediatype>audio</mediatype>
                            <trackindex>1</trackindex>
                        </sourcetrack>
                        <filter>
                            <enabled>TRUE</enabled>
                            <start>0</start>
                            <end>225</end>
                            <effect>
                                <name>Audio Levels</name>
                                <effectid>audiolevels</effectid>
                                <effecttype>audiolevels</effecttype>
                                <mediatype>audio</mediatype>
                                <effectcategory>audiolevels</effectcategory>
                                <parameter>
                                    <name>Level</name>
                                    <parameterid>level</parameterid>
                                    <value>1</value>
                                    <valuemin>1e-05</valuemin>
                                    <valuemax>31.6228</valuemax>
                                </parameter>
                            </effect>
                        </filter>
                        <filter>
                            <enabled>TRUE</enabled>
                            <start>0</start>
                            <end>225</end>
                            <effect>
                                <name>Audio Pan</name>
                                <effectid>audiopan</effectid>
                                <effecttype>audiopan</effecttype>
                                <mediatype>audio</mediatype>
                                <effectcategory>audiopan</effectcategory>
                                <parameter>
                                    <name>Pan</name>
                                    <parameterid>pan</parameterid>
                                    <value>0</value>
                                    <valuemin>-1</valuemin>
                                    <valuemax>1</valuemax>
                                </parameter>
                            </effect>
                        </filter>
                        <comments/>
                    </clipitem>
                    <clipitem id="2024-05-04 19-36-43.mp4 45">
                        <name>2024-05-04 19-36-43.mp4</name>
                        <duration>225</duration>
                        <rate>
                            <timebase>60</timebase>
                            <ntsc>FALSE</ntsc>
                        </rate>
                        <start>675</start>
                        <end>900</end>
                        <enabled>TRUE</enabled>
                        <in>0</in>
                        <out>225</out>
                        <file id="2024-05-04 19-36-43.mp4 1"/>
                        <sourcetrack>
                            <mediatype>audio</mediatype>
                            <trackindex>1</trackindex>
                        </sourcetrack>
                        <filter>
                            <enabled>TRUE</enabled>
                            <start>0</start>
                            <end>225</end>
                            <effect>
                                <name>Audio Levels</name>
                                <effectid>audiolevels</effectid>
                                <effecttype>audiolevels</effecttype>
                                <mediatype>audio</mediatype>
                                <effectcategory>audiolevels</effectcategory>
                                <parameter>
                                    <name>Level</name>
                                    <parameterid>level</parameterid>
                                    <value>1</value>
                                    <valuemin>1e-05</valuemin>
                                    <valuemax>31.6228</valuemax>
                                </parameter>
                            </effect>
                        </filter>
                        <filter>
                            <enabled>TRUE</enabled>
                            <start>0</start>
                            <end>225</end>
                            <effect>
                                <name>Audio Pan</name>
                                <effectid>audiopan</effectid>
                                <effecttype>audiopan</effecttype>
                                <mediatype>audio</mediatype>
                                <effectcategory>audiopan</effectcategory>
                                <parameter>
                                    <name>Pan</name>
                                    <parameterid>pan</parameterid>
                                    <value>0</value>
                                    <valuemin>-1</valuemin>
                                    <valuemax>1</valuemax>
                                </parameter>
                            </effect>
                        </filter>
                        <comments/>
                    </clipitem>
                    <clipitem id="2024-05-04 19-36-43.mp4 46">
                        <name>2024-05-04 19-36-43.mp4</name>
                        <duration>225</duration>
                        <rate>
                            <timebase>60</timebase>
                            <ntsc>FALSE</ntsc>
                        </rate>
                        <start>900</start>
                        <end>1084</end>
                        <enabled>TRUE</enabled>
                        <in>0</in>
                        <out>184</out>
                        <file id="2024-05-04 19-36-43.mp4 1"/>
                        <sourcetrack>
                            <mediatype>audio</mediatype>
                            <trackindex>1</trackindex>
                        </sourcetrack>
                        <filter>
                            <enabled>TRUE</enabled>
                            <start>0</start>
                            <end>225</end>
                            <effect>
                                <name>Audio Levels</name>
                                <effectid>audiolevels</effectid>
                                <effecttype>audiolevels</effecttype>
                                <mediatype>audio</mediatype>
                                <effectcategory>audiolevels</effectcategory>
                                <parameter>
                                    <name>Level</name>
                                    <parameterid>level</parameterid>
                                    <value>1</value>
                                    <valuemin>1e-05</valuemin>
                                    <valuemax>31.6228</valuemax>
                                </parameter>
                            </effect>
                        </filter>
                        <filter>
                            <enabled>TRUE</enabled>
                            <start>0</start>
                            <end>225</end>
                            <effect>
                                <name>Audio Pan</name>
                                <effectid>audiopan</effectid>
                                <effecttype>audiopan</effecttype>
                                <mediatype>audio</mediatype>
                                <effectcategory>audiopan</effectcategory>
                                <parameter>
                                    <name>Pan</name>
                                    <parameterid>pan</parameterid>
                                    <value>0</value>
                                    <valuemin>-1</valuemin>
                                    <valuemax>1</valuemax>
                                </parameter>
                            </effect>
                        </filter>
                        <comments/>
                    </clipitem>
                    <enabled>TRUE</enabled>
                    <locked>FALSE</locked>
                </track>
                <track>
                    <clipitem id="2024-05-04 19-57-57.mp4 0">
                        <name>2024-05-04 19-57-57.mp4</name>
                        <duration>580</duration>
                        <rate>
                            <timebase>60</timebase>
                            <ntsc>FALSE</ntsc>
                        </rate>
                        <start>0</start>
                        <end>580</end>
                        <enabled>TRUE</enabled>
                        <in>0</in>
                        <out>580</out>
                        <file id="2024-05-04 19-57-57.mp4 1">
                            <duration>580</duration>
                            <rate>
                                <timebase>60</timebase>
                                <ntsc>FALSE</ntsc>
                            </rate>
                            <name>2024-05-04 19-57-57.mp4</name>
                            <pathurl>file://localhost/C:/Users/nefve/OneDrive/FE/FE%20HTML,%20CSS,%20JavaSkript,%20Pyhon%20&amp;%20C++/videos/2024-05-04%2019-57-57.mp4</pathurl>
                            <media>
                                <audio>
                                    <channelcount>2</channelcount>
                                </audio>
                            </media>
                        </file>
                        <sourcetrack>
                            <mediatype>audio</mediatype>
                            <trackindex>1</trackindex>
                        </sourcetrack>
                        <filter>
                            <enabled>TRUE</enabled>
                            <start>0</start>
                            <end>580</end>
                            <effect>
                                <name>Audio Levels</name>
                                <effectid>audiolevels</effectid>
                                <effecttype>audiolevels</effecttype>
                                <mediatype>audio</mediatype>
                                <effectcategory>audiolevels</effectcategory>
                                <parameter>
                                    <name>Level</name>
                                    <parameterid>level</parameterid>
                                    <value>1</value>
                                    <valuemin>1e-05</valuemin>
                                    <valuemax>31.6228</valuemax>
                                </parameter>
                            </effect>
                        </filter>
                        <filter>
                            <enabled>TRUE</enabled>
                            <start>0</start>
                            <end>580</end>
                            <effect>
                                <name>Audio Pan</name>
                                <effectid>audiopan</effectid>
                                <effecttype>audiopan</effecttype>
                                <mediatype>audio</mediatype>
                                <effectcategory>audiopan</effectcategory>
                                <parameter>
                                    <name>Pan</name>
                                    <parameterid>pan</parameterid>
                                    <value>0</value>
                                    <valuemin>-1</valuemin>
                                    <valuemax>1</valuemax>
                                </parameter>
                            </effect>
                        </filter>
                        <comments/>
                    </clipitem>
                    <clipitem id="2024-05-04 19-57-57.mp4 2">
                        <name>2024-05-04 19-57-57.mp4</name>
                        <duration>580</duration>
                        <rate>
                            <timebase>60</timebase>
                            <ntsc>FALSE</ntsc>
                        </rate>
                        <start>582</start>
                        <end>1088</end>
                        <enabled>TRUE</enabled>
                        <in>0</in>
                        <out>506</out>
                        <file id="2024-05-04 19-57-57.mp4 1"/>
                        <sourcetrack>
                            <mediatype>audio</mediatype>
                            <trackindex>1</trackindex>
                        </sourcetrack>
                        <filter>
                            <enabled>TRUE</enabled>
                            <start>0</start>
                            <end>580</end>
                            <effect>
                                <name>Audio Levels</name>
                                <effectid>audiolevels</effectid>
                                <effecttype>audiolevels</effecttype>
                                <mediatype>audio</mediatype>
                                <effectcategory>audiolevels</effectcategory>
                                <parameter>
                                    <name>Level</name>
                                    <parameterid>level</parameterid>
                                    <value>1</value>
                                    <valuemin>1e-05</valuemin>
                                    <valuemax>31.6228</valuemax>
                                </parameter>
                            </effect>
                        </filter>
                        <filter>
                            <enabled>TRUE</enabled>
                            <start>0</start>
                            <end>580</end>
                            <effect>
                                <name>Audio Pan</name>
                                <effectid>audiopan</effectid>
                                <effecttype>audiopan</effecttype>
                                <mediatype>audio</mediatype>
                                <effectcategory>audiopan</effectcategory>
                                <parameter>
                                    <name>Pan</name>
                                    <parameterid>pan</parameterid>
                                    <value>0</value>
                                    <valuemin>-1</valuemin>
                                    <valuemax>1</valuemax>
                                </parameter>
                            </effect>
                        </filter>
                        <comments/>
                    </clipitem>
                    <enabled>TRUE</enabled>
                    <locked>FALSE</locked>
                </track>
            </audio>
        </media>
    </sequence>
</xmeml>
